<mxfile host="www.draw.io" modified="2020-02-27T07:39:06.013Z" agent="Mozilla/5.0 (Windows NT 10.0; Win64; x64; rv:73.0) Gecko/20100101 Firefox/73.0" etag="me7Lj9yvNZK-PIIErzcc" version="12.7.8" type="github" pages="6">
  <diagram id="C5RBs43oDa-KdzZeNtuy" name="Page-1">
    <mxGraphModel dx="3555" dy="3047" grid="1" gridSize="10" guides="1" tooltips="1" connect="1" arrows="1" fold="1" page="1" pageScale="1" pageWidth="827" pageHeight="1169" math="0" shadow="0">
      <root>
        <mxCell id="WIyWlLk6GJQsqaUBKTNV-0" />
        <mxCell id="WIyWlLk6GJQsqaUBKTNV-1" parent="WIyWlLk6GJQsqaUBKTNV-0" />
        <mxCell id="OBOQh95cMkhffVZw8m3Q-5" value="Super System&#xa;Adminstrator" style="rounded=1;fillColor=#10739E;strokeColor=none;shadow=1;gradientColor=none;fontStyle=1;fontColor=#FFFFFF;fontSize=14;" parent="WIyWlLk6GJQsqaUBKTNV-1" vertex="1">
          <mxGeometry x="620" y="114" width="200" height="60" as="geometry" />
        </mxCell>
        <mxCell id="OBOQh95cMkhffVZw8m3Q-6" value="System Adminstrator" style="rounded=1;fillColor=#10739E;strokeColor=none;shadow=1;gradientColor=none;fontStyle=1;fontColor=#FFFFFF;fontSize=14;" parent="WIyWlLk6GJQsqaUBKTNV-1" vertex="1">
          <mxGeometry x="610" y="254" width="220" height="60" as="geometry" />
        </mxCell>
        <mxCell id="OBOQh95cMkhffVZw8m3Q-7" value="Manager" style="rounded=1;fillColor=#10739E;strokeColor=none;shadow=1;gradientColor=none;fontStyle=1;fontColor=#FFFFFF;fontSize=14;" parent="WIyWlLk6GJQsqaUBKTNV-1" vertex="1">
          <mxGeometry x="250" y="364" width="200" height="60" as="geometry" />
        </mxCell>
        <mxCell id="OBOQh95cMkhffVZw8m3Q-8" value="Feedback Interlocutor" style="rounded=1;fillColor=#10739E;strokeColor=none;shadow=1;gradientColor=none;fontStyle=1;fontColor=#FFFFFF;fontSize=14;" parent="WIyWlLk6GJQsqaUBKTNV-1" vertex="1">
          <mxGeometry x="490" y="364" width="200" height="60" as="geometry" />
        </mxCell>
        <mxCell id="OBOQh95cMkhffVZw8m3Q-9" value="Counsel Division" style="rounded=1;fillColor=#10739E;strokeColor=none;shadow=1;gradientColor=none;fontStyle=1;fontColor=#FFFFFF;fontSize=14;" parent="WIyWlLk6GJQsqaUBKTNV-1" vertex="1">
          <mxGeometry x="820" y="364" width="200" height="60" as="geometry" />
        </mxCell>
        <mxCell id="OBOQh95cMkhffVZw8m3Q-10" value="Cooperation" style="rounded=1;fillColor=#10739E;strokeColor=none;shadow=1;gradientColor=none;fontStyle=1;fontColor=#FFFFFF;fontSize=14;" parent="WIyWlLk6GJQsqaUBKTNV-1" vertex="1">
          <mxGeometry x="1220" y="364" width="200" height="60" as="geometry" />
        </mxCell>
        <mxCell id="OBOQh95cMkhffVZw8m3Q-11" value="Analysis &#xa;Division" style="rounded=1;fillColor=#10739E;strokeColor=none;shadow=1;gradientColor=none;fontStyle=1;fontColor=#FFFFFF;fontSize=14;" parent="WIyWlLk6GJQsqaUBKTNV-1" vertex="1">
          <mxGeometry x="230" y="534" width="200" height="60" as="geometry" />
        </mxCell>
        <mxCell id="OBOQh95cMkhffVZw8m3Q-12" value="Office of Global Support" style="rounded=1;fillColor=#10739E;strokeColor=none;shadow=1;gradientColor=none;fontStyle=1;fontColor=#FFFFFF;fontSize=14;" parent="WIyWlLk6GJQsqaUBKTNV-1" vertex="1">
          <mxGeometry x="230" y="614" width="200" height="60" as="geometry" />
        </mxCell>
        <mxCell id="OBOQh95cMkhffVZw8m3Q-13" value="Office of &#xa;Backtrack Analysis" style="rounded=1;fillColor=#10739E;strokeColor=none;shadow=1;gradientColor=none;fontStyle=1;fontColor=#FFFFFF;fontSize=14;" parent="WIyWlLk6GJQsqaUBKTNV-1" vertex="1">
          <mxGeometry x="230" y="704" width="200" height="60" as="geometry" />
        </mxCell>
        <mxCell id="OBOQh95cMkhffVZw8m3Q-14" value="Department of &#xa;Heuristic Support" style="rounded=1;fillColor=#10739E;strokeColor=none;shadow=1;gradientColor=none;fontStyle=1;fontColor=#FFFFFF;fontSize=14;" parent="WIyWlLk6GJQsqaUBKTNV-1" vertex="1">
          <mxGeometry x="230" y="794" width="200" height="60" as="geometry" />
        </mxCell>
        <mxCell id="OBOQh95cMkhffVZw8m3Q-15" value="Office of Intelligence &#xa;Support" style="rounded=1;fillColor=#10739E;strokeColor=none;shadow=1;gradientColor=none;fontStyle=1;fontColor=#FFFFFF;fontSize=14;" parent="WIyWlLk6GJQsqaUBKTNV-1" vertex="1">
          <mxGeometry x="230" y="884" width="200" height="60" as="geometry" />
        </mxCell>
        <mxCell id="OBOQh95cMkhffVZw8m3Q-16" value="IT&#xa;Division" style="rounded=1;fillColor=#10739E;strokeColor=none;shadow=1;gradientColor=none;fontStyle=1;fontColor=#FFFFFF;fontSize=14;" parent="WIyWlLk6GJQsqaUBKTNV-1" vertex="1">
          <mxGeometry x="500" y="524" width="200" height="60" as="geometry" />
        </mxCell>
        <mxCell id="OBOQh95cMkhffVZw8m3Q-17" value="Database Administration" style="rounded=1;fillColor=#10739E;strokeColor=none;shadow=1;gradientColor=none;fontStyle=1;fontColor=#FFFFFF;fontSize=14;" parent="WIyWlLk6GJQsqaUBKTNV-1" vertex="1">
          <mxGeometry x="500" y="614" width="200" height="60" as="geometry" />
        </mxCell>
        <mxCell id="OBOQh95cMkhffVZw8m3Q-18" value="Office of Technology &#xa;Research" style="rounded=1;fillColor=#10739E;strokeColor=none;shadow=1;gradientColor=none;fontStyle=1;fontColor=#FFFFFF;fontSize=14;" parent="WIyWlLk6GJQsqaUBKTNV-1" vertex="1">
          <mxGeometry x="500" y="704" width="200" height="60" as="geometry" />
        </mxCell>
        <mxCell id="OBOQh95cMkhffVZw8m3Q-19" value="Office of&#xa;Data Services" style="rounded=1;fillColor=#10739E;strokeColor=none;shadow=1;gradientColor=none;fontStyle=1;fontColor=#FFFFFF;fontSize=14;" parent="WIyWlLk6GJQsqaUBKTNV-1" vertex="1">
          <mxGeometry x="500" y="794" width="200" height="60" as="geometry" />
        </mxCell>
        <mxCell id="OBOQh95cMkhffVZw8m3Q-20" value="Management Programs &#xa;Division" style="rounded=1;fillColor=#10739E;strokeColor=none;shadow=1;gradientColor=none;fontStyle=1;fontColor=#FFFFFF;fontSize=14;" parent="WIyWlLk6GJQsqaUBKTNV-1" vertex="1">
          <mxGeometry x="790" y="524" width="200" height="60" as="geometry" />
        </mxCell>
        <mxCell id="OBOQh95cMkhffVZw8m3Q-21" value="Office of Financial &#xa;Management" style="rounded=1;fillColor=#10739E;strokeColor=none;shadow=1;gradientColor=none;fontStyle=1;fontColor=#FFFFFF;fontSize=14;" parent="WIyWlLk6GJQsqaUBKTNV-1" vertex="1">
          <mxGeometry x="790" y="614" width="200" height="60" as="geometry" />
        </mxCell>
        <mxCell id="OBOQh95cMkhffVZw8m3Q-22" value="Office of Human Resources" style="rounded=1;fillColor=#10739E;strokeColor=none;shadow=1;gradientColor=none;fontStyle=1;fontColor=#FFFFFF;fontSize=14;" parent="WIyWlLk6GJQsqaUBKTNV-1" vertex="1">
          <mxGeometry x="790" y="704" width="200" height="60" as="geometry" />
        </mxCell>
        <mxCell id="OBOQh95cMkhffVZw8m3Q-23" value="Office of Management " style="rounded=1;fillColor=#10739E;strokeColor=none;shadow=1;gradientColor=none;fontStyle=1;fontColor=#FFFFFF;fontSize=14;" parent="WIyWlLk6GJQsqaUBKTNV-1" vertex="1">
          <mxGeometry x="790" y="794" width="200" height="60" as="geometry" />
        </mxCell>
        <mxCell id="OBOQh95cMkhffVZw8m3Q-24" value="Office of Training Services" style="rounded=1;fillColor=#10739E;strokeColor=none;shadow=1;gradientColor=none;fontStyle=1;fontColor=#FFFFFF;fontSize=14;" parent="WIyWlLk6GJQsqaUBKTNV-1" vertex="1">
          <mxGeometry x="790" y="884" width="200" height="60" as="geometry" />
        </mxCell>
        <mxCell id="OBOQh95cMkhffVZw8m3Q-25" value="Regulatory &#xa;and Enforcement Division" style="rounded=1;fillColor=#10739E;strokeColor=none;shadow=1;gradientColor=none;fontStyle=1;fontColor=#FFFFFF;fontSize=14;" parent="WIyWlLk6GJQsqaUBKTNV-1" vertex="1">
          <mxGeometry x="1040" y="524" width="200" height="60" as="geometry" />
        </mxCell>
        <mxCell id="OBOQh95cMkhffVZw8m3Q-26" value="Office of Regulatory Policy" style="rounded=1;fillColor=#10739E;strokeColor=none;shadow=1;gradientColor=none;fontStyle=1;fontColor=#FFFFFF;fontSize=14;" parent="WIyWlLk6GJQsqaUBKTNV-1" vertex="1">
          <mxGeometry x="1040" y="614" width="200" height="60" as="geometry" />
        </mxCell>
        <mxCell id="OBOQh95cMkhffVZw8m3Q-27" value="Office Compliance" style="rounded=1;fillColor=#10739E;strokeColor=none;shadow=1;gradientColor=none;fontStyle=1;fontColor=#FFFFFF;fontSize=14;" parent="WIyWlLk6GJQsqaUBKTNV-1" vertex="1">
          <mxGeometry x="1040" y="704" width="200" height="60" as="geometry" />
        </mxCell>
        <mxCell id="OBOQh95cMkhffVZw8m3Q-28" value="Office of &#xa;Enforcement" style="rounded=1;fillColor=#10739E;strokeColor=none;shadow=1;gradientColor=none;fontStyle=1;fontColor=#FFFFFF;fontSize=14;" parent="WIyWlLk6GJQsqaUBKTNV-1" vertex="1">
          <mxGeometry x="1040" y="794" width="200" height="60" as="geometry" />
        </mxCell>
        <mxCell id="OBOQh95cMkhffVZw8m3Q-29" value="Office of&#xa; Regulatory Support" style="rounded=1;fillColor=#10739E;strokeColor=none;shadow=1;gradientColor=none;fontStyle=1;fontColor=#FFFFFF;fontSize=14;" parent="WIyWlLk6GJQsqaUBKTNV-1" vertex="1">
          <mxGeometry x="1040" y="884" width="200" height="60" as="geometry" />
        </mxCell>
        <mxCell id="OBOQh95cMkhffVZw8m3Q-31" value="" style="edgeStyle=elbowEdgeStyle;elbow=vertical;strokeWidth=4;endArrow=block;endFill=1;fontStyle=1;strokeColor=#23445D;" parent="WIyWlLk6GJQsqaUBKTNV-1" source="OBOQh95cMkhffVZw8m3Q-6" target="OBOQh95cMkhffVZw8m3Q-8" edge="1">
          <mxGeometry x="-30" y="74" width="100" height="100" as="geometry">
            <mxPoint x="-30" y="174" as="sourcePoint" />
            <mxPoint x="70" y="74" as="targetPoint" />
          </mxGeometry>
        </mxCell>
        <mxCell id="OBOQh95cMkhffVZw8m3Q-32" value="" style="edgeStyle=elbowEdgeStyle;elbow=vertical;strokeWidth=4;endArrow=block;endFill=1;fontStyle=1;strokeColor=#23445D;" parent="WIyWlLk6GJQsqaUBKTNV-1" source="OBOQh95cMkhffVZw8m3Q-6" target="OBOQh95cMkhffVZw8m3Q-7" edge="1">
          <mxGeometry x="-30" y="74" width="100" height="100" as="geometry">
            <mxPoint x="-30" y="174" as="sourcePoint" />
            <mxPoint x="70" y="74" as="targetPoint" />
          </mxGeometry>
        </mxCell>
        <mxCell id="OBOQh95cMkhffVZw8m3Q-33" value="" style="edgeStyle=elbowEdgeStyle;elbow=vertical;strokeWidth=4;endArrow=block;endFill=1;fontStyle=1;strokeColor=#23445D;" parent="WIyWlLk6GJQsqaUBKTNV-1" source="OBOQh95cMkhffVZw8m3Q-6" target="OBOQh95cMkhffVZw8m3Q-9" edge="1">
          <mxGeometry x="-30" y="74" width="100" height="100" as="geometry">
            <mxPoint x="-30" y="174" as="sourcePoint" />
            <mxPoint x="70" y="74" as="targetPoint" />
          </mxGeometry>
        </mxCell>
        <mxCell id="OBOQh95cMkhffVZw8m3Q-34" value="" style="edgeStyle=elbowEdgeStyle;elbow=vertical;strokeWidth=4;endArrow=block;endFill=1;fontStyle=1;dashed=1;strokeColor=#23445D;" parent="WIyWlLk6GJQsqaUBKTNV-1" source="OBOQh95cMkhffVZw8m3Q-5" target="OBOQh95cMkhffVZw8m3Q-10" edge="1">
          <mxGeometry x="-30" y="74" width="100" height="100" as="geometry">
            <mxPoint x="-30" y="174" as="sourcePoint" />
            <mxPoint x="70" y="74" as="targetPoint" />
            <Array as="points">
              <mxPoint x="1010" y="204" />
            </Array>
          </mxGeometry>
        </mxCell>
        <mxCell id="OBOQh95cMkhffVZw8m3Q-35" value="" style="edgeStyle=elbowEdgeStyle;elbow=vertical;strokeWidth=4;endArrow=block;endFill=1;fontStyle=1;strokeColor=#23445D;" parent="WIyWlLk6GJQsqaUBKTNV-1" source="OBOQh95cMkhffVZw8m3Q-6" target="OBOQh95cMkhffVZw8m3Q-11" edge="1">
          <mxGeometry x="-30" y="74" width="100" height="100" as="geometry">
            <mxPoint x="-30" y="174" as="sourcePoint" />
            <mxPoint x="70" y="74" as="targetPoint" />
            <Array as="points">
              <mxPoint x="500" y="464" />
            </Array>
          </mxGeometry>
        </mxCell>
        <mxCell id="OBOQh95cMkhffVZw8m3Q-36" value="" style="edgeStyle=elbowEdgeStyle;elbow=vertical;strokeWidth=4;endArrow=block;endFill=1;fontStyle=1;strokeColor=#23445D;" parent="WIyWlLk6GJQsqaUBKTNV-1" source="OBOQh95cMkhffVZw8m3Q-6" target="OBOQh95cMkhffVZw8m3Q-25" edge="1">
          <mxGeometry x="-30" y="74" width="100" height="100" as="geometry">
            <mxPoint x="-30" y="174" as="sourcePoint" />
            <mxPoint x="70" y="74" as="targetPoint" />
            <Array as="points">
              <mxPoint x="920" y="464" />
            </Array>
          </mxGeometry>
        </mxCell>
        <mxCell id="OBOQh95cMkhffVZw8m3Q-37" value="" style="edgeStyle=elbowEdgeStyle;elbow=vertical;strokeWidth=4;endArrow=block;endFill=1;fontStyle=1;strokeColor=#23445D;" parent="WIyWlLk6GJQsqaUBKTNV-1" source="OBOQh95cMkhffVZw8m3Q-11" target="OBOQh95cMkhffVZw8m3Q-12" edge="1">
          <mxGeometry x="10" y="74" width="100" height="100" as="geometry">
            <mxPoint x="10" y="174" as="sourcePoint" />
            <mxPoint x="110" y="74" as="targetPoint" />
          </mxGeometry>
        </mxCell>
        <mxCell id="OBOQh95cMkhffVZw8m3Q-38" value="" style="edgeStyle=elbowEdgeStyle;elbow=vertical;strokeWidth=4;endArrow=block;endFill=1;fontStyle=1;strokeColor=#23445D;" parent="WIyWlLk6GJQsqaUBKTNV-1" source="OBOQh95cMkhffVZw8m3Q-12" target="OBOQh95cMkhffVZw8m3Q-13" edge="1">
          <mxGeometry x="10" y="84" width="100" height="100" as="geometry">
            <mxPoint x="10" y="184" as="sourcePoint" />
            <mxPoint x="110" y="84" as="targetPoint" />
          </mxGeometry>
        </mxCell>
        <mxCell id="OBOQh95cMkhffVZw8m3Q-39" value="" style="edgeStyle=elbowEdgeStyle;elbow=vertical;strokeWidth=4;endArrow=block;endFill=1;fontStyle=1;strokeColor=#23445D;" parent="WIyWlLk6GJQsqaUBKTNV-1" source="OBOQh95cMkhffVZw8m3Q-13" target="OBOQh95cMkhffVZw8m3Q-14" edge="1">
          <mxGeometry x="10" y="94" width="100" height="100" as="geometry">
            <mxPoint x="10" y="194" as="sourcePoint" />
            <mxPoint x="110" y="94" as="targetPoint" />
          </mxGeometry>
        </mxCell>
        <mxCell id="OBOQh95cMkhffVZw8m3Q-40" value="" style="edgeStyle=elbowEdgeStyle;elbow=vertical;strokeWidth=4;endArrow=block;endFill=1;fontStyle=1;strokeColor=#23445D;" parent="WIyWlLk6GJQsqaUBKTNV-1" source="OBOQh95cMkhffVZw8m3Q-14" target="OBOQh95cMkhffVZw8m3Q-15" edge="1">
          <mxGeometry x="10" y="104" width="100" height="100" as="geometry">
            <mxPoint x="10" y="204" as="sourcePoint" />
            <mxPoint x="110" y="104" as="targetPoint" />
          </mxGeometry>
        </mxCell>
        <mxCell id="OBOQh95cMkhffVZw8m3Q-41" value="" style="edgeStyle=elbowEdgeStyle;elbow=vertical;strokeWidth=4;endArrow=block;endFill=1;fontStyle=1;strokeColor=#23445D;" parent="WIyWlLk6GJQsqaUBKTNV-1" source="OBOQh95cMkhffVZw8m3Q-16" target="OBOQh95cMkhffVZw8m3Q-17" edge="1">
          <mxGeometry x="10" y="74" width="100" height="100" as="geometry">
            <mxPoint x="10" y="174" as="sourcePoint" />
            <mxPoint x="110" y="74" as="targetPoint" />
          </mxGeometry>
        </mxCell>
        <mxCell id="OBOQh95cMkhffVZw8m3Q-42" value="" style="edgeStyle=elbowEdgeStyle;elbow=vertical;strokeWidth=4;endArrow=block;endFill=1;fontStyle=1;strokeColor=#23445D;" parent="WIyWlLk6GJQsqaUBKTNV-1" source="OBOQh95cMkhffVZw8m3Q-17" target="OBOQh95cMkhffVZw8m3Q-18" edge="1">
          <mxGeometry x="10" y="84" width="100" height="100" as="geometry">
            <mxPoint x="10" y="184" as="sourcePoint" />
            <mxPoint x="110" y="84" as="targetPoint" />
          </mxGeometry>
        </mxCell>
        <mxCell id="OBOQh95cMkhffVZw8m3Q-43" value="" style="edgeStyle=elbowEdgeStyle;elbow=vertical;strokeWidth=4;endArrow=block;endFill=1;fontStyle=1;strokeColor=#23445D;" parent="WIyWlLk6GJQsqaUBKTNV-1" source="OBOQh95cMkhffVZw8m3Q-18" target="OBOQh95cMkhffVZw8m3Q-19" edge="1">
          <mxGeometry x="10" y="94" width="100" height="100" as="geometry">
            <mxPoint x="10" y="194" as="sourcePoint" />
            <mxPoint x="110" y="94" as="targetPoint" />
          </mxGeometry>
        </mxCell>
        <mxCell id="OBOQh95cMkhffVZw8m3Q-44" value="" style="edgeStyle=elbowEdgeStyle;elbow=vertical;strokeWidth=4;endArrow=block;endFill=1;fontStyle=1;strokeColor=#23445D;" parent="WIyWlLk6GJQsqaUBKTNV-1" source="OBOQh95cMkhffVZw8m3Q-20" target="OBOQh95cMkhffVZw8m3Q-21" edge="1">
          <mxGeometry x="20" y="74" width="100" height="100" as="geometry">
            <mxPoint x="20" y="174" as="sourcePoint" />
            <mxPoint x="120" y="74" as="targetPoint" />
          </mxGeometry>
        </mxCell>
        <mxCell id="OBOQh95cMkhffVZw8m3Q-45" value="" style="edgeStyle=elbowEdgeStyle;elbow=vertical;strokeWidth=4;endArrow=block;endFill=1;fontStyle=1;strokeColor=#23445D;" parent="WIyWlLk6GJQsqaUBKTNV-1" source="OBOQh95cMkhffVZw8m3Q-21" target="OBOQh95cMkhffVZw8m3Q-22" edge="1">
          <mxGeometry x="20" y="84" width="100" height="100" as="geometry">
            <mxPoint x="20" y="184" as="sourcePoint" />
            <mxPoint x="120" y="84" as="targetPoint" />
          </mxGeometry>
        </mxCell>
        <mxCell id="OBOQh95cMkhffVZw8m3Q-46" value="" style="edgeStyle=elbowEdgeStyle;elbow=vertical;strokeWidth=4;endArrow=block;endFill=1;fontStyle=1;strokeColor=#23445D;" parent="WIyWlLk6GJQsqaUBKTNV-1" source="OBOQh95cMkhffVZw8m3Q-22" target="OBOQh95cMkhffVZw8m3Q-23" edge="1">
          <mxGeometry x="20" y="94" width="100" height="100" as="geometry">
            <mxPoint x="20" y="194" as="sourcePoint" />
            <mxPoint x="120" y="94" as="targetPoint" />
          </mxGeometry>
        </mxCell>
        <mxCell id="OBOQh95cMkhffVZw8m3Q-47" value="" style="edgeStyle=elbowEdgeStyle;elbow=vertical;strokeWidth=4;endArrow=block;endFill=1;fontStyle=1;strokeColor=#23445D;" parent="WIyWlLk6GJQsqaUBKTNV-1" source="OBOQh95cMkhffVZw8m3Q-23" target="OBOQh95cMkhffVZw8m3Q-24" edge="1">
          <mxGeometry x="20" y="104" width="100" height="100" as="geometry">
            <mxPoint x="20" y="204" as="sourcePoint" />
            <mxPoint x="120" y="104" as="targetPoint" />
          </mxGeometry>
        </mxCell>
        <mxCell id="OBOQh95cMkhffVZw8m3Q-48" value="" style="edgeStyle=elbowEdgeStyle;elbow=vertical;strokeWidth=4;endArrow=block;endFill=1;fontStyle=1;strokeColor=#23445D;" parent="WIyWlLk6GJQsqaUBKTNV-1" source="OBOQh95cMkhffVZw8m3Q-25" target="OBOQh95cMkhffVZw8m3Q-26" edge="1">
          <mxGeometry x="20" y="74" width="100" height="100" as="geometry">
            <mxPoint x="20" y="174" as="sourcePoint" />
            <mxPoint x="120" y="74" as="targetPoint" />
          </mxGeometry>
        </mxCell>
        <mxCell id="OBOQh95cMkhffVZw8m3Q-49" value="" style="edgeStyle=elbowEdgeStyle;elbow=vertical;strokeWidth=4;endArrow=block;endFill=1;fontStyle=1;strokeColor=#23445D;" parent="WIyWlLk6GJQsqaUBKTNV-1" source="OBOQh95cMkhffVZw8m3Q-26" target="OBOQh95cMkhffVZw8m3Q-27" edge="1">
          <mxGeometry x="20" y="84" width="100" height="100" as="geometry">
            <mxPoint x="20" y="184" as="sourcePoint" />
            <mxPoint x="120" y="84" as="targetPoint" />
          </mxGeometry>
        </mxCell>
        <mxCell id="OBOQh95cMkhffVZw8m3Q-50" value="" style="edgeStyle=elbowEdgeStyle;elbow=vertical;strokeWidth=4;endArrow=block;endFill=1;fontStyle=1;strokeColor=#23445D;" parent="WIyWlLk6GJQsqaUBKTNV-1" source="OBOQh95cMkhffVZw8m3Q-27" target="OBOQh95cMkhffVZw8m3Q-28" edge="1">
          <mxGeometry x="20" y="94" width="100" height="100" as="geometry">
            <mxPoint x="20" y="194" as="sourcePoint" />
            <mxPoint x="120" y="94" as="targetPoint" />
          </mxGeometry>
        </mxCell>
        <mxCell id="OBOQh95cMkhffVZw8m3Q-51" value="" style="edgeStyle=elbowEdgeStyle;elbow=vertical;strokeWidth=4;endArrow=block;endFill=1;fontStyle=1;strokeColor=#23445D;" parent="WIyWlLk6GJQsqaUBKTNV-1" source="OBOQh95cMkhffVZw8m3Q-28" target="OBOQh95cMkhffVZw8m3Q-29" edge="1">
          <mxGeometry x="20" y="104" width="100" height="100" as="geometry">
            <mxPoint x="20" y="204" as="sourcePoint" />
            <mxPoint x="120" y="104" as="targetPoint" />
          </mxGeometry>
        </mxCell>
        <mxCell id="OBOQh95cMkhffVZw8m3Q-52" value="" style="edgeStyle=elbowEdgeStyle;elbow=vertical;strokeWidth=4;endArrow=block;endFill=1;fontStyle=1;strokeColor=#23445D;" parent="WIyWlLk6GJQsqaUBKTNV-1" source="OBOQh95cMkhffVZw8m3Q-6" target="OBOQh95cMkhffVZw8m3Q-16" edge="1">
          <mxGeometry x="-30" y="74" width="100" height="100" as="geometry">
            <mxPoint x="-30" y="174" as="sourcePoint" />
            <mxPoint x="70" y="74" as="targetPoint" />
            <Array as="points">
              <mxPoint x="600" y="464" />
            </Array>
          </mxGeometry>
        </mxCell>
        <mxCell id="OBOQh95cMkhffVZw8m3Q-53" value="" style="edgeStyle=elbowEdgeStyle;elbow=vertical;strokeWidth=4;endArrow=block;endFill=1;fontStyle=1;strokeColor=#23445D;" parent="WIyWlLk6GJQsqaUBKTNV-1" source="OBOQh95cMkhffVZw8m3Q-6" target="OBOQh95cMkhffVZw8m3Q-20" edge="1">
          <mxGeometry x="-30" y="74" width="100" height="100" as="geometry">
            <mxPoint x="-30" y="174" as="sourcePoint" />
            <mxPoint x="70" y="74" as="targetPoint" />
            <Array as="points">
              <mxPoint x="890" y="464" />
            </Array>
          </mxGeometry>
        </mxCell>
        <mxCell id="OBOQh95cMkhffVZw8m3Q-106" value="Text" style="text;html=1;align=center;verticalAlign=middle;resizable=0;points=[];autosize=1;" parent="WIyWlLk6GJQsqaUBKTNV-1" vertex="1">
          <mxGeometry x="5" y="-3" width="40" height="20" as="geometry" />
        </mxCell>
        <mxCell id="OBOQh95cMkhffVZw8m3Q-112" value="" style="edgeStyle=elbowEdgeStyle;elbow=vertical;strokeWidth=4;endArrow=block;endFill=1;fontStyle=1;strokeColor=#23445D;" parent="WIyWlLk6GJQsqaUBKTNV-1" edge="1">
          <mxGeometry x="-29.710000000000036" y="74" width="100" height="100" as="geometry">
            <mxPoint x="720.29" y="174" as="sourcePoint" />
            <mxPoint x="720.29" y="254" as="targetPoint" />
          </mxGeometry>
        </mxCell>
      </root>
    </mxGraphModel>
  </diagram>
  <diagram id="-O00j1tQZ1MpL5goMb2f" name="Page-2">
    <mxGraphModel dx="3755" dy="1878" grid="0" gridSize="10" guides="1" tooltips="1" connect="0" arrows="1" fold="1" page="1" pageScale="1" pageWidth="100" pageHeight="300" background="none" math="0" shadow="1">
      <root>
        <mxCell id="Ld5y9Fo_SOwqp39tFzAJ-0" />
        <mxCell id="Ld5y9Fo_SOwqp39tFzAJ-1" parent="Ld5y9Fo_SOwqp39tFzAJ-0" />
        <mxCell id="JM0mI9Wo3sELhNkSNja4-14" value="" style="edgeStyle=elbowEdgeStyle;elbow=vertical;strokeWidth=4;endArrow=block;endFill=1;fontStyle=1;dashed=1;strokeColor=#666666;verticalAlign=middle;" parent="Ld5y9Fo_SOwqp39tFzAJ-1" edge="1">
          <mxGeometry x="4" y="348" width="100" height="100" as="geometry">
            <mxPoint x="425" y="448" as="sourcePoint" />
            <mxPoint x="1329" y="607.9999999999999" as="targetPoint" />
            <Array as="points">
              <mxPoint x="1044" y="478" />
            </Array>
          </mxGeometry>
        </mxCell>
        <mxCell id="z637HSTa_vEVJ37j_fF9-0" value="Ngage Orchestrator" style="rounded=1;fillColor=#10739E;strokeColor=none;shadow=1;gradientColor=none;fontStyle=1;fontColor=#FFFFFF;fontSize=14;verticalAlign=middle;" parent="Ld5y9Fo_SOwqp39tFzAJ-1" vertex="1">
          <mxGeometry x="325" y="253" width="200" height="60" as="geometry" />
        </mxCell>
        <mxCell id="z637HSTa_vEVJ37j_fF9-2" value="" style="edgeStyle=elbowEdgeStyle;elbow=vertical;strokeWidth=4;endArrow=block;endFill=1;fontStyle=1;strokeColor=#23445D;verticalAlign=middle;" parent="Ld5y9Fo_SOwqp39tFzAJ-1" edge="1">
          <mxGeometry x="-325.5" y="353" width="100" height="100" as="geometry">
            <mxPoint x="424.5" y="453" as="sourcePoint" />
            <mxPoint x="424.5" y="533" as="targetPoint" />
          </mxGeometry>
        </mxCell>
        <mxCell id="z637HSTa_vEVJ37j_fF9-3" value="System Adminstrator" style="rounded=1;fillColor=#10739E;strokeColor=none;shadow=1;gradientColor=none;fontStyle=1;fontColor=#FFFFFF;fontSize=14;verticalAlign=middle;" parent="Ld5y9Fo_SOwqp39tFzAJ-1" vertex="1">
          <mxGeometry x="315" y="393" width="220" height="60" as="geometry" />
        </mxCell>
        <mxCell id="z637HSTa_vEVJ37j_fF9-4" value="" style="edgeStyle=elbowEdgeStyle;elbow=vertical;strokeWidth=4;endArrow=block;endFill=1;fontStyle=1;dashed=1;strokeColor=#23445D;verticalAlign=middle;" parent="Ld5y9Fo_SOwqp39tFzAJ-1" edge="1">
          <mxGeometry x="-345.5" y="113" width="100" height="100" as="geometry">
            <mxPoint x="424.5" y="313" as="sourcePoint" />
            <mxPoint x="425" y="393" as="targetPoint" />
            <Array as="points" />
          </mxGeometry>
        </mxCell>
        <mxCell id="z637HSTa_vEVJ37j_fF9-7" value="Manager" style="rounded=1;fillColor=#10739E;strokeColor=none;shadow=1;gradientColor=none;fontStyle=1;fontColor=#FFFFFF;fontSize=14;verticalAlign=middle;" parent="Ld5y9Fo_SOwqp39tFzAJ-1" vertex="1">
          <mxGeometry x="325" y="533" width="200" height="60" as="geometry" />
        </mxCell>
        <mxCell id="PbAjBOfByNzJKvfTmDTJ-1" value="" style="edgeStyle=elbowEdgeStyle;elbow=vertical;strokeWidth=4;endArrow=block;endFill=1;fontStyle=1;strokeColor=#23445D;exitX=0.5;exitY=1;exitDx=0;exitDy=0;verticalAlign=middle;" parent="Ld5y9Fo_SOwqp39tFzAJ-1" source="z637HSTa_vEVJ37j_fF9-7" edge="1">
          <mxGeometry x="-326" y="384" width="100" height="100" as="geometry">
            <mxPoint x="424" y="624" as="sourcePoint" />
            <mxPoint x="240" y="674" as="targetPoint" />
          </mxGeometry>
        </mxCell>
        <mxCell id="JM0mI9Wo3sELhNkSNja4-0" value="" style="edgeStyle=elbowEdgeStyle;elbow=vertical;strokeWidth=4;endArrow=block;endFill=1;fontStyle=1;strokeColor=#23445D;verticalAlign=middle;entryX=0.54;entryY=0;entryDx=0;entryDy=0;entryPerimeter=0;" parent="Ld5y9Fo_SOwqp39tFzAJ-1" target="JM0mI9Wo3sELhNkSNja4-12" edge="1">
          <mxGeometry x="-325.06" y="213" width="100" height="100" as="geometry">
            <mxPoint x="424.94" y="453" as="sourcePoint" />
            <mxPoint x="799.94" y="528" as="targetPoint" />
            <Array as="points">
              <mxPoint x="614" y="503" />
            </Array>
          </mxGeometry>
        </mxCell>
        <mxCell id="JM0mI9Wo3sELhNkSNja4-1" value="" style="edgeStyle=elbowEdgeStyle;elbow=vertical;strokeWidth=4;endArrow=block;endFill=1;fontStyle=1;strokeColor=#23445D;verticalAlign=middle;" parent="Ld5y9Fo_SOwqp39tFzAJ-1" edge="1">
          <mxGeometry x="-325" y="358" width="100" height="100" as="geometry">
            <mxPoint x="425" y="598" as="sourcePoint" />
            <mxPoint x="610" y="673" as="targetPoint" />
            <Array as="points">
              <mxPoint x="510" y="633" />
            </Array>
          </mxGeometry>
        </mxCell>
        <mxCell id="JM0mI9Wo3sELhNkSNja4-4" value="" style="edgeStyle=elbowEdgeStyle;elbow=vertical;strokeWidth=4;endArrow=block;endFill=1;fontStyle=1;strokeColor=#23445D;verticalAlign=middle;" parent="Ld5y9Fo_SOwqp39tFzAJ-1" edge="1">
          <mxGeometry x="-325.29" y="493" width="100" height="100" as="geometry">
            <mxPoint x="424.71" y="593" as="sourcePoint" />
            <mxPoint x="424.71" y="673" as="targetPoint" />
          </mxGeometry>
        </mxCell>
        <mxCell id="JM0mI9Wo3sELhNkSNja4-8" value="Author" style="rounded=1;fillColor=#10739E;strokeColor=none;shadow=1;gradientColor=none;fontStyle=1;fontColor=#FFFFFF;fontSize=14;aspect=fixed;verticalAlign=middle;" parent="Ld5y9Fo_SOwqp39tFzAJ-1" vertex="1">
          <mxGeometry x="160" y="754" width="150" height="45" as="geometry" />
        </mxCell>
        <mxCell id="JM0mI9Wo3sELhNkSNja4-9" value="Senior Author" style="rounded=1;fillColor=#10739E;strokeColor=none;shadow=1;gradientColor=none;fontStyle=1;fontColor=#FFFFFF;fontSize=14;verticalAlign=middle;" parent="Ld5y9Fo_SOwqp39tFzAJ-1" vertex="1">
          <mxGeometry x="160" y="673" width="150" height="45" as="geometry" />
        </mxCell>
        <mxCell id="JM0mI9Wo3sELhNkSNja4-10" value="User Management" style="rounded=1;fillColor=#10739E;strokeColor=none;shadow=1;gradientColor=none;fontStyle=1;fontColor=#FFFFFF;fontSize=14;verticalAlign=middle;" parent="Ld5y9Fo_SOwqp39tFzAJ-1" vertex="1">
          <mxGeometry x="350" y="673" width="150" height="45" as="geometry" />
        </mxCell>
        <mxCell id="JM0mI9Wo3sELhNkSNja4-11" value="Product Owener" style="rounded=1;fillColor=#10739E;strokeColor=none;shadow=1;gradientColor=none;fontStyle=1;fontColor=#FFFFFF;fontSize=14;verticalAlign=middle;" parent="Ld5y9Fo_SOwqp39tFzAJ-1" vertex="1">
          <mxGeometry x="535" y="673" width="150" height="45" as="geometry" />
        </mxCell>
        <mxCell id="JM0mI9Wo3sELhNkSNja4-12" value="Feedback&#xa;Interlocutor" style="rounded=1;fillColor=#10739E;strokeColor=none;shadow=1;gradientColor=none;fontStyle=1;fontColor=#FFFFFF;fontSize=14;verticalAlign=middle;" parent="Ld5y9Fo_SOwqp39tFzAJ-1" vertex="1">
          <mxGeometry x="626" y="544.5" width="150" height="45" as="geometry" />
        </mxCell>
        <mxCell id="JM0mI9Wo3sELhNkSNja4-16" value="Advisor" style="rounded=1;fillColor=#949494;strokeColor=#666666;shadow=0;fontStyle=1;fontSize=18;fontColor=#FCFCFC;verticalAlign=middle;" parent="Ld5y9Fo_SOwqp39tFzAJ-1" vertex="1">
          <mxGeometry x="1254" y="612.9999999999999" width="150" height="45" as="geometry" />
        </mxCell>
        <mxCell id="JM0mI9Wo3sELhNkSNja4-19" value="" style="edgeStyle=elbowEdgeStyle;elbow=vertical;strokeWidth=4;endArrow=block;endFill=1;fontStyle=1;strokeColor=#23445D;verticalAlign=middle;" parent="Ld5y9Fo_SOwqp39tFzAJ-1" target="JM0mI9Wo3sELhNkSNja4-20" edge="1">
          <mxGeometry x="-326" y="244" width="100" height="100" as="geometry">
            <mxPoint x="424" y="453" as="sourcePoint" />
            <mxPoint x="50" y="534" as="targetPoint" />
            <Array as="points">
              <mxPoint x="262" y="506" />
              <mxPoint x="153" y="500" />
            </Array>
          </mxGeometry>
        </mxCell>
        <mxCell id="JM0mI9Wo3sELhNkSNja4-20" value="Analysis &#xa;Division" style="rounded=1;fillColor=#10739E;strokeColor=none;shadow=1;gradientColor=none;fontStyle=1;fontColor=#FFFFFF;fontSize=14;verticalAlign=middle;" parent="Ld5y9Fo_SOwqp39tFzAJ-1" vertex="1">
          <mxGeometry x="61.999999999999545" y="544.5" width="150" height="45" as="geometry" />
        </mxCell>
        <mxCell id="JM0mI9Wo3sELhNkSNja4-24" value="" style="rounded=0;whiteSpace=wrap;html=1;shadow=1;strokeColor=#666666;fillColor=#004C99;fontSize=18;fontColor=#FCFCFC;" parent="Ld5y9Fo_SOwqp39tFzAJ-1" vertex="1">
          <mxGeometry x="-197" width="1791" height="113" as="geometry" />
        </mxCell>
        <mxCell id="JM0mI9Wo3sELhNkSNja4-25" value="" style="endArrow=none;dashed=1;html=1;strokeColor=#666666;strokeWidth=5;fontSize=18;fontColor=#FCFCFC;" parent="Ld5y9Fo_SOwqp39tFzAJ-1" edge="1">
          <mxGeometry width="50" height="50" relative="1" as="geometry">
            <mxPoint x="939" y="889" as="sourcePoint" />
            <mxPoint x="939" y="5" as="targetPoint" />
          </mxGeometry>
        </mxCell>
        <mxCell id="JM0mI9Wo3sELhNkSNja4-30" value="Ngage Authoring" style="text;align=center;verticalAlign=middle;resizable=0;points=[];autosize=1;fontSize=40;fontColor=#FFFFFF;fontStyle=1;horizontal=1;shadow=0;labelBorderColor=none;labelBackgroundColor=none;spacingTop=0;html=1;" parent="Ld5y9Fo_SOwqp39tFzAJ-1" vertex="1">
          <mxGeometry x="258" y="30" width="334" height="52" as="geometry" />
        </mxCell>
        <mxCell id="JM0mI9Wo3sELhNkSNja4-31" value="Ngage Application" style="text;align=center;verticalAlign=middle;resizable=0;points=[];autosize=1;fontSize=40;fontColor=#FFFFFF;fontStyle=1;horizontal=1;labelBackgroundColor=none;labelBorderColor=none;spacingTop=0;html=1;" parent="Ld5y9Fo_SOwqp39tFzAJ-1" vertex="1">
          <mxGeometry x="1122" y="30" width="361" height="52" as="geometry" />
        </mxCell>
        <mxCell id="ksVVc3uu4jCE0Lhcw8x3-3" value="" style="edgeStyle=elbowEdgeStyle;elbow=vertical;strokeWidth=4;endArrow=block;endFill=1;fontStyle=1;strokeColor=#23445D;entryX=0.518;entryY=-0.005;entryDx=0;entryDy=0;entryPerimeter=0;" parent="Ld5y9Fo_SOwqp39tFzAJ-1" target="JM0mI9Wo3sELhNkSNja4-8" edge="1">
          <mxGeometry x="-632" y="-31.999999999999545" width="100" height="100" as="geometry">
            <mxPoint x="238" y="718" as="sourcePoint" />
            <mxPoint x="238" y="748" as="targetPoint" />
          </mxGeometry>
        </mxCell>
      </root>
    </mxGraphModel>
  </diagram>
  <diagram name="Copy of Page-2" id="S572TCt5PqrfEtzgWRv_">
    <mxGraphModel dx="3044" dy="1502" grid="0" gridSize="10" guides="1" tooltips="1" connect="0" arrows="1" fold="1" page="1" pageScale="1" pageWidth="100" pageHeight="300" background="none" math="0" shadow="1">
      <root>
        <mxCell id="4XL-7_dN4XmQ1qLoOE1o-0" />
        <mxCell id="4XL-7_dN4XmQ1qLoOE1o-1" parent="4XL-7_dN4XmQ1qLoOE1o-0" />
        <mxCell id="4XL-7_dN4XmQ1qLoOE1o-37" value="" style="edgeStyle=orthogonalEdgeStyle;rounded=0;orthogonalLoop=1;jettySize=auto;html=1;strokeWidth=4;" parent="4XL-7_dN4XmQ1qLoOE1o-1" source="4XL-7_dN4XmQ1qLoOE1o-3" target="4XL-7_dN4XmQ1qLoOE1o-32" edge="1">
          <mxGeometry relative="1" as="geometry" />
        </mxCell>
        <mxCell id="4XL-7_dN4XmQ1qLoOE1o-3" value="Feedback Interlocutor" style="rounded=1;fillColor=#10739E;strokeColor=none;shadow=1;gradientColor=none;fontStyle=1;fontColor=#FFFFFF;fontSize=25;verticalAlign=middle;aspect=fixed;" parent="4XL-7_dN4XmQ1qLoOE1o-1" vertex="1">
          <mxGeometry x="370" y="251" width="295" height="70.8" as="geometry" />
        </mxCell>
        <mxCell id="4XL-7_dN4XmQ1qLoOE1o-17" value="Advisor" style="rounded=1;fillColor=#949494;strokeColor=#666666;shadow=0;fontStyle=1;fontSize=25;fontColor=#FCFCFC;verticalAlign=middle;" parent="4XL-7_dN4XmQ1qLoOE1o-1" vertex="1">
          <mxGeometry x="1346" y="612.9999999999999" width="150" height="45" as="geometry" />
        </mxCell>
        <mxCell id="4XL-7_dN4XmQ1qLoOE1o-20" value="" style="rounded=0;whiteSpace=wrap;html=1;shadow=1;strokeColor=#666666;fillColor=#004C99;fontSize=18;fontColor=#FCFCFC;" parent="4XL-7_dN4XmQ1qLoOE1o-1" vertex="1">
          <mxGeometry x="-197" width="1791" height="113" as="geometry" />
        </mxCell>
        <mxCell id="4XL-7_dN4XmQ1qLoOE1o-21" value="" style="endArrow=none;html=1;strokeColor=#000000;strokeWidth=5;fontSize=18;fontColor=#FCFCFC;" parent="4XL-7_dN4XmQ1qLoOE1o-1" edge="1">
          <mxGeometry width="50" height="50" relative="1" as="geometry">
            <mxPoint x="1051" y="1192" as="sourcePoint" />
            <mxPoint x="1051" y="112" as="targetPoint" />
          </mxGeometry>
        </mxCell>
        <mxCell id="4XL-7_dN4XmQ1qLoOE1o-22" value="Feedback Interlocutor" style="text;align=center;verticalAlign=middle;resizable=0;points=[];autosize=1;fontSize=40;fontColor=#FFFFFF;fontStyle=1;horizontal=1;shadow=0;labelBorderColor=none;labelBackgroundColor=none;spacingTop=0;html=1;" parent="4XL-7_dN4XmQ1qLoOE1o-1" vertex="1">
          <mxGeometry x="636" y="30.5" width="428" height="52" as="geometry" />
        </mxCell>
        <mxCell id="4XL-7_dN4XmQ1qLoOE1o-59" value="" style="edgeStyle=orthogonalEdgeStyle;rounded=0;orthogonalLoop=1;jettySize=auto;html=1;strokeWidth=4;entryX=1.1;entryY=0.42;entryDx=0;entryDy=0;entryPerimeter=0;" parent="4XL-7_dN4XmQ1qLoOE1o-1" source="4XL-7_dN4XmQ1qLoOE1o-32" target="4XL-7_dN4XmQ1qLoOE1o-60" edge="1">
          <mxGeometry relative="1" as="geometry">
            <mxPoint x="363.5" y="480.5" as="targetPoint" />
          </mxGeometry>
        </mxCell>
        <mxCell id="4XL-7_dN4XmQ1qLoOE1o-67" value="" style="edgeStyle=orthogonalEdgeStyle;rounded=0;orthogonalLoop=1;jettySize=auto;html=1;strokeWidth=4;fontColor=#5E5E5E;" parent="4XL-7_dN4XmQ1qLoOE1o-1" source="4XL-7_dN4XmQ1qLoOE1o-32" target="4XL-7_dN4XmQ1qLoOE1o-65" edge="1">
          <mxGeometry relative="1" as="geometry" />
        </mxCell>
        <mxCell id="4XL-7_dN4XmQ1qLoOE1o-73" value="" style="edgeStyle=orthogonalEdgeStyle;rounded=0;orthogonalLoop=1;jettySize=auto;html=1;strokeWidth=4;fontColor=#000000;entryX=-0.077;entryY=0.803;entryDx=0;entryDy=0;entryPerimeter=0;" parent="4XL-7_dN4XmQ1qLoOE1o-1" source="4XL-7_dN4XmQ1qLoOE1o-32" target="4XL-7_dN4XmQ1qLoOE1o-68" edge="1">
          <mxGeometry relative="1" as="geometry">
            <mxPoint x="670.5" y="480.5" as="targetPoint" />
          </mxGeometry>
        </mxCell>
        <mxCell id="4XL-7_dN4XmQ1qLoOE1o-32" value="&lt;font style=&quot;font-size: 25px&quot;&gt;Action&lt;/font&gt;" style="rhombus;whiteSpace=wrap;html=1;rounded=1;shadow=1;fontSize=14;fontColor=#FFFFFF;fontStyle=1;strokeColor=none;fillColor=#10739E;gradientColor=none;" parent="4XL-7_dN4XmQ1qLoOE1o-1" vertex="1">
          <mxGeometry x="444.5" y="407" width="147" height="147" as="geometry" />
        </mxCell>
        <mxCell id="4XL-7_dN4XmQ1qLoOE1o-53" value="" style="edgeStyle=orthogonalEdgeStyle;rounded=0;orthogonalLoop=1;jettySize=auto;html=1;strokeWidth=4;" parent="4XL-7_dN4XmQ1qLoOE1o-1" source="4XL-7_dN4XmQ1qLoOE1o-38" target="4XL-7_dN4XmQ1qLoOE1o-52" edge="1">
          <mxGeometry relative="1" as="geometry">
            <mxPoint x="378.5" y="775.5" as="targetPoint" />
          </mxGeometry>
        </mxCell>
        <mxCell id="4XL-7_dN4XmQ1qLoOE1o-56" value="" style="edgeStyle=orthogonalEdgeStyle;rounded=0;orthogonalLoop=1;jettySize=auto;html=1;strokeWidth=4;entryX=1.1;entryY=0.42;entryDx=0;entryDy=0;entryPerimeter=0;" parent="4XL-7_dN4XmQ1qLoOE1o-1" source="4XL-7_dN4XmQ1qLoOE1o-38" target="4XL-7_dN4XmQ1qLoOE1o-46" edge="1">
          <mxGeometry relative="1" as="geometry">
            <mxPoint x="71.5" y="775.5" as="targetPoint" />
          </mxGeometry>
        </mxCell>
        <mxCell id="4XL-7_dN4XmQ1qLoOE1o-38" value="&lt;font style=&quot;font-size: 25px&quot;&gt;Assign&lt;/font&gt;" style="rhombus;whiteSpace=wrap;html=1;rounded=1;shadow=1;fontSize=14;fontColor=#FFFFFF;fontStyle=1;strokeColor=none;fillColor=#10739E;gradientColor=none;" parent="4XL-7_dN4XmQ1qLoOE1o-1" vertex="1">
          <mxGeometry x="150.5" y="702" width="147" height="147" as="geometry" />
        </mxCell>
        <mxCell id="4XL-7_dN4XmQ1qLoOE1o-41" value="Action" style="rounded=1;fillColor=#10739E;strokeColor=none;shadow=1;gradientColor=none;fontStyle=1;fontColor=#FFFFFF;fontSize=25;" parent="4XL-7_dN4XmQ1qLoOE1o-1" vertex="1">
          <mxGeometry x="-181" y="945" width="220" height="60" as="geometry" />
        </mxCell>
        <mxCell id="4XL-7_dN4XmQ1qLoOE1o-43" value="Action" style="rounded=1;fillColor=#10739E;strokeColor=none;shadow=1;gradientColor=none;fontStyle=1;fontColor=#FFFFFF;fontSize=25;" parent="4XL-7_dN4XmQ1qLoOE1o-1" vertex="1">
          <mxGeometry x="397" y="945" width="220" height="60" as="geometry" />
        </mxCell>
        <mxCell id="4XL-7_dN4XmQ1qLoOE1o-49" value="" style="edgeStyle=orthogonalEdgeStyle;rounded=0;orthogonalLoop=1;jettySize=auto;html=1;strokeWidth=4;" parent="4XL-7_dN4XmQ1qLoOE1o-1" source="4XL-7_dN4XmQ1qLoOE1o-46" target="4XL-7_dN4XmQ1qLoOE1o-41" edge="1">
          <mxGeometry relative="1" as="geometry">
            <mxPoint x="-71" y="870" as="targetPoint" />
          </mxGeometry>
        </mxCell>
        <mxCell id="4XL-7_dN4XmQ1qLoOE1o-46" value="&lt;font size=&quot;1&quot; color=&quot;#5E5E5E&quot;&gt;&lt;b&gt;&lt;font style=&quot;font-size: 30px&quot;&gt;Self&lt;/font&gt;&lt;/b&gt;&lt;/font&gt;" style="text;html=1;align=center;verticalAlign=middle;resizable=0;points=[];autosize=1;" parent="4XL-7_dN4XmQ1qLoOE1o-1" vertex="1">
          <mxGeometry x="-103.5" y="765" width="65" height="25" as="geometry" />
        </mxCell>
        <mxCell id="4XL-7_dN4XmQ1qLoOE1o-54" value="" style="edgeStyle=orthogonalEdgeStyle;rounded=0;orthogonalLoop=1;jettySize=auto;html=1;strokeWidth=4;entryX=0.532;entryY=0;entryDx=0;entryDy=0;entryPerimeter=0;" parent="4XL-7_dN4XmQ1qLoOE1o-1" source="4XL-7_dN4XmQ1qLoOE1o-52" target="4XL-7_dN4XmQ1qLoOE1o-43" edge="1">
          <mxGeometry relative="1" as="geometry">
            <mxPoint x="514" y="924" as="targetPoint" />
          </mxGeometry>
        </mxCell>
        <mxCell id="4XL-7_dN4XmQ1qLoOE1o-52" value="&lt;font color=&quot;#5E5E5E&quot;&gt;&lt;b&gt;&lt;font style=&quot;font-size: 30px&quot;&gt;Others&lt;/font&gt;&lt;/b&gt;&lt;/font&gt;" style="text;html=1;align=center;verticalAlign=middle;resizable=0;points=[];autosize=1;" parent="4XL-7_dN4XmQ1qLoOE1o-1" vertex="1">
          <mxGeometry x="461" y="763" width="107" height="25" as="geometry" />
        </mxCell>
        <mxCell id="4XL-7_dN4XmQ1qLoOE1o-62" value="" style="edgeStyle=orthogonalEdgeStyle;rounded=0;orthogonalLoop=1;jettySize=auto;html=1;strokeWidth=4;fontColor=#5E5E5E;entryX=0.48;entryY=0.032;entryDx=0;entryDy=0;entryPerimeter=0;" parent="4XL-7_dN4XmQ1qLoOE1o-1" source="4XL-7_dN4XmQ1qLoOE1o-60" target="4XL-7_dN4XmQ1qLoOE1o-38" edge="1">
          <mxGeometry relative="1" as="geometry">
            <mxPoint x="221.5" y="575" as="targetPoint" />
          </mxGeometry>
        </mxCell>
        <mxCell id="4XL-7_dN4XmQ1qLoOE1o-60" value="&lt;b&gt;&lt;font style=&quot;font-size: 30px&quot;&gt;Approve&lt;/font&gt;&lt;/b&gt;" style="text;html=1;align=center;verticalAlign=middle;resizable=0;points=[];autosize=1;fontColor=#5E5E5E;" parent="4XL-7_dN4XmQ1qLoOE1o-1" vertex="1">
          <mxGeometry x="155.5" y="470" width="132" height="25" as="geometry" />
        </mxCell>
        <mxCell id="4XL-7_dN4XmQ1qLoOE1o-65" value="&lt;font color=&quot;#5E5E5E&quot;&gt;&lt;b&gt;&lt;font style=&quot;font-size: 30px&quot;&gt;Appreciate&lt;/font&gt;&lt;/b&gt;&lt;/font&gt;" style="text;html=1;align=center;verticalAlign=middle;resizable=0;points=[];autosize=1;fontColor=#5E5E5E;" parent="4XL-7_dN4XmQ1qLoOE1o-1" vertex="1">
          <mxGeometry x="435" y="651" width="165" height="25" as="geometry" />
        </mxCell>
        <mxCell id="4XL-7_dN4XmQ1qLoOE1o-68" value="&lt;font color=&quot;#5E5E5E&quot;&gt;&lt;b&gt;&lt;font style=&quot;font-size: 30px&quot;&gt;Reject&lt;/font&gt;&lt;/b&gt;&lt;/font&gt;" style="text;html=1;fontColor=#5E5E5E;" parent="4XL-7_dN4XmQ1qLoOE1o-1" vertex="1">
          <mxGeometry x="769.996666666667" y="458.0033333333335" width="78" height="28" as="geometry" />
        </mxCell>
        <mxCell id="4XL-7_dN4XmQ1qLoOE1o-74" value="" style="elbow=vertical;strokeWidth=4;endArrow=classic;endFill=1;fontStyle=1;dashed=1;strokeColor=#666666;verticalAlign=middle;exitX=0.615;exitY=1.428;exitDx=0;exitDy=0;exitPerimeter=0;" parent="4XL-7_dN4XmQ1qLoOE1o-1" edge="1">
          <mxGeometry x="390" y="353" width="100" height="100" as="geometry">
            <mxPoint x="829.9666666666667" y="497.9873333333335" as="sourcePoint" />
            <mxPoint x="830" y="723" as="targetPoint" />
          </mxGeometry>
        </mxCell>
        <mxCell id="4XL-7_dN4XmQ1qLoOE1o-75" value="" style="edgeStyle=elbowEdgeStyle;elbow=vertical;strokeWidth=4;endArrow=block;endFill=1;fontStyle=1;dashed=1;strokeColor=#666666;verticalAlign=middle;" parent="4XL-7_dN4XmQ1qLoOE1o-1" edge="1">
          <mxGeometry x="111" y="538" width="100" height="100" as="geometry">
            <mxPoint x="600" y="668" as="sourcePoint" />
            <mxPoint x="830" y="1120" as="targetPoint" />
            <Array as="points">
              <mxPoint x="1151" y="668" />
            </Array>
          </mxGeometry>
        </mxCell>
        <mxCell id="4XL-7_dN4XmQ1qLoOE1o-76" value="" style="edgeStyle=elbowEdgeStyle;elbow=vertical;strokeWidth=4;endArrow=classic;endFill=1;fontStyle=1;dashed=1;strokeColor=#666666;verticalAlign=middle;exitX=0.477;exitY=1.05;exitDx=0;exitDy=0;exitPerimeter=0;" parent="4XL-7_dN4XmQ1qLoOE1o-1" source="4XL-7_dN4XmQ1qLoOE1o-41" edge="1">
          <mxGeometry x="-522" y="995" width="100" height="100" as="geometry">
            <mxPoint x="-33" y="1125" as="sourcePoint" />
            <mxPoint x="887" y="1125" as="targetPoint" />
            <Array as="points">
              <mxPoint x="518" y="1125" />
            </Array>
          </mxGeometry>
        </mxCell>
        <mxCell id="4XL-7_dN4XmQ1qLoOE1o-77" value="" style="edgeStyle=elbowEdgeStyle;elbow=vertical;strokeWidth=4;endArrow=block;endFill=1;fontStyle=1;dashed=1;strokeColor=#666666;verticalAlign=middle;exitX=0.477;exitY=1.05;exitDx=0;exitDy=0;exitPerimeter=0;" parent="4XL-7_dN4XmQ1qLoOE1o-1" edge="1">
          <mxGeometry x="70.05999999999995" y="998" width="100" height="100" as="geometry">
            <mxPoint x="516" y="1011" as="sourcePoint" />
            <mxPoint x="516" y="1122" as="targetPoint" />
            <Array as="points" />
          </mxGeometry>
        </mxCell>
        <mxCell id="4XL-7_dN4XmQ1qLoOE1o-78" value="&lt;font style=&quot;font-size: 28px&quot;&gt;&lt;b&gt;AUTHORING&lt;/b&gt;&lt;/font&gt;" style="rounded=1;whiteSpace=wrap;html=1;shadow=1;strokeColor=#666666;fillColor=#004C99;fontSize=18;fontColor=#FCFCFC;" parent="4XL-7_dN4XmQ1qLoOE1o-1" vertex="1">
          <mxGeometry x="272" y="115" width="288" height="50" as="geometry" />
        </mxCell>
        <mxCell id="4XL-7_dN4XmQ1qLoOE1o-79" value="&lt;b&gt;&lt;font style=&quot;font-size: 28px&quot;&gt;APPLICATION&lt;/font&gt;&lt;/b&gt;" style="rounded=1;whiteSpace=wrap;html=1;shadow=1;strokeColor=#666666;fillColor=#004C99;fontSize=18;fontColor=#FCFCFC;" parent="4XL-7_dN4XmQ1qLoOE1o-1" vertex="1">
          <mxGeometry x="1225" y="115" width="288" height="50" as="geometry" />
        </mxCell>
        <mxCell id="_uenV9kLGMnrk8H_kMpW-0" value="&lt;font style=&quot;font-size: 30px;&quot; color=&quot;#5E5E5E&quot;&gt;Responce&lt;/font&gt;" style="text;html=1;align=center;verticalAlign=middle;resizable=0;points=[];autosize=1;fontColor=#5E5E5E;fontSize=30;fontStyle=1" parent="4XL-7_dN4XmQ1qLoOE1o-1" vertex="1">
          <mxGeometry x="882.33" y="1103" width="153" height="40" as="geometry" />
        </mxCell>
        <mxCell id="_uenV9kLGMnrk8H_kMpW-1" value="" style="elbow=vertical;strokeWidth=4;endArrow=classic;endFill=1;fontStyle=1;dashed=1;strokeColor=#666666;verticalAlign=middle;exitX=1.031;exitY=0.675;exitDx=0;exitDy=0;exitPerimeter=0;edgeStyle=orthogonalEdgeStyle;entryX=0.513;entryY=1;entryDx=0;entryDy=0;entryPerimeter=0;" parent="4XL-7_dN4XmQ1qLoOE1o-1" source="_uenV9kLGMnrk8H_kMpW-0" target="4XL-7_dN4XmQ1qLoOE1o-17" edge="1">
          <mxGeometry x="867.03" y="776.01" width="100" height="100" as="geometry">
            <mxPoint x="1306.9966666666667" y="920.9973333333335" as="sourcePoint" />
            <mxPoint x="1428" y="1123" as="targetPoint" />
          </mxGeometry>
        </mxCell>
      </root>
    </mxGraphModel>
  </diagram>
  <diagram id="JXleY3BrT34G4SnGfwCn" name="Page-4">
    <mxGraphModel dx="1622" dy="631" grid="1" gridSize="10" guides="1" tooltips="1" connect="1" arrows="1" fold="1" page="1" pageScale="1" pageWidth="40" pageHeight="30" math="0" shadow="0">
      <root>
        <mxCell id="c2JASZ9gz_57_YNBIvmX-0" />
        <mxCell id="c2JASZ9gz_57_YNBIvmX-1" parent="c2JASZ9gz_57_YNBIvmX-0" />
        <mxCell id="c2JASZ9gz_57_YNBIvmX-5" value="" style="rounded=0;whiteSpace=wrap;html=1;shadow=1;strokeColor=#666666;fillColor=#8c7aa9;fontSize=18;fontColor=#FCFCFC;rotation=90;" parent="c2JASZ9gz_57_YNBIvmX-1" vertex="1">
          <mxGeometry x="-450" y="383" width="977" height="453" as="geometry" />
        </mxCell>
        <mxCell id="c2JASZ9gz_57_YNBIvmX-34" value="Super System&#xa;Adminstrator" style="rounded=1;fillColor=#10739E;strokeColor=none;shadow=1;gradientColor=none;fontStyle=1;fontColor=#FFFFFF;fontSize=35;" parent="c2JASZ9gz_57_YNBIvmX-1" vertex="1">
          <mxGeometry x="-151.57" y="235.9999999999999" width="400" height="99" as="geometry" />
        </mxCell>
        <mxCell id="c2JASZ9gz_57_YNBIvmX-39" value="&lt;font style=&quot;font-size: 30px&quot;&gt;&lt;span&gt;Reporting Module&lt;/span&gt;&lt;/font&gt;" style="text;html=1;strokeColor=none;fillColor=none;align=center;verticalAlign=middle;whiteSpace=wrap;rounded=0;shadow=1;fontSize=35;fontColor=#330066;fontStyle=1;labelBorderColor=none;" parent="c2JASZ9gz_57_YNBIvmX-1" vertex="1">
          <mxGeometry x="340" y="260.5" width="250" height="70.5" as="geometry" />
        </mxCell>
        <mxCell id="b5WC907d7xyRMW614ULj-0" value="Report Builder: User can build the report by themselves and can save and share it to custom reports&lt;br&gt;" style="rounded=1;fillColor=#10739E;strokeColor=none;shadow=1;gradientColor=none;fontStyle=1;fontColor=#FFFFFF;fontSize=25;whiteSpace=wrap;html=1;" parent="c2JASZ9gz_57_YNBIvmX-1" vertex="1">
          <mxGeometry x="640" y="202.75" width="775" height="108" as="geometry" />
        </mxCell>
        <mxCell id="b5WC907d7xyRMW614ULj-1" value="Custom Reports: Some reports are custom build and can be made through Repots Builder" style="rounded=1;fillColor=#10739E;strokeColor=none;shadow=1;gradientColor=none;fontStyle=1;fontColor=#FFFFFF;fontSize=25;whiteSpace=wrap;html=1;" parent="c2JASZ9gz_57_YNBIvmX-1" vertex="1">
          <mxGeometry x="640" y="318.75" width="775" height="108" as="geometry" />
        </mxCell>
        <mxCell id="YFI8WPLBsElpcgAKOfzH-4" value="" style="endArrow=none;dashed=1;html=1;fontSize=25;fontColor=#330066;strokeWidth=4;" parent="c2JASZ9gz_57_YNBIvmX-1" edge="1">
          <mxGeometry width="50" height="50" relative="1" as="geometry">
            <mxPoint x="2105" y="497" as="sourcePoint" />
            <mxPoint x="-192" y="496.5" as="targetPoint" />
          </mxGeometry>
        </mxCell>
        <mxCell id="YFI8WPLBsElpcgAKOfzH-9" value="User layout Type 1" style="rounded=1;fillColor=#10739E;strokeColor=none;shadow=1;gradientColor=none;fontStyle=1;fontColor=#FFFFFF;fontSize=35;" parent="c2JASZ9gz_57_YNBIvmX-1" vertex="1">
          <mxGeometry x="-156.07" y="588.2499999999999" width="400" height="99" as="geometry" />
        </mxCell>
        <mxCell id="YFI8WPLBsElpcgAKOfzH-10" value="&lt;font style=&quot;font-size: 30px&quot;&gt;&lt;span&gt;Reporting Module&lt;/span&gt;&lt;/font&gt;" style="text;html=1;strokeColor=none;fillColor=none;align=center;verticalAlign=middle;whiteSpace=wrap;rounded=0;shadow=1;fontSize=35;fontColor=#330066;fontStyle=1;labelBorderColor=none;" parent="c2JASZ9gz_57_YNBIvmX-1" vertex="1">
          <mxGeometry x="335.5" y="612.75" width="250" height="70.5" as="geometry" />
        </mxCell>
        <mxCell id="YFI8WPLBsElpcgAKOfzH-12" value="Mapped with Specific Reports required as pe users access&lt;br&gt;" style="rounded=1;fillColor=#10739E;strokeColor=none;shadow=1;gradientColor=none;fontStyle=1;fontColor=#FFFFFF;fontSize=25;align=center;verticalAlign=middle;html=1;" parent="c2JASZ9gz_57_YNBIvmX-1" vertex="1">
          <mxGeometry x="642" y="602.75" width="775" height="108" as="geometry" />
        </mxCell>
        <mxCell id="YFI8WPLBsElpcgAKOfzH-13" value="" style="endArrow=none;dashed=1;html=1;fontSize=25;fontColor=#330066;strokeWidth=4;" parent="c2JASZ9gz_57_YNBIvmX-1" edge="1">
          <mxGeometry width="50" height="50" relative="1" as="geometry">
            <mxPoint x="2103.5" y="797.25" as="sourcePoint" />
            <mxPoint x="-193.5" y="796.75" as="targetPoint" />
          </mxGeometry>
        </mxCell>
        <mxCell id="YFI8WPLBsElpcgAKOfzH-14" value="User Layout Type 2" style="rounded=1;fillColor=#10739E;strokeColor=none;shadow=1;gradientColor=none;fontStyle=1;fontColor=#FFFFFF;fontSize=35;" parent="c2JASZ9gz_57_YNBIvmX-1" vertex="1">
          <mxGeometry x="-149.57" y="929.2499999999999" width="400" height="99" as="geometry" />
        </mxCell>
        <mxCell id="YFI8WPLBsElpcgAKOfzH-15" value="&lt;font style=&quot;font-size: 30px&quot;&gt;&lt;span&gt;Reporting Module&lt;/span&gt;&lt;/font&gt;" style="text;html=1;strokeColor=none;fillColor=none;align=center;verticalAlign=middle;whiteSpace=wrap;rounded=0;shadow=1;fontSize=35;fontColor=#330066;fontStyle=1;labelBorderColor=none;" parent="c2JASZ9gz_57_YNBIvmX-1" vertex="1">
          <mxGeometry x="342" y="953.75" width="250" height="70.5" as="geometry" />
        </mxCell>
        <mxCell id="YFI8WPLBsElpcgAKOfzH-17" value="Mapped With Custom Reports&amp;nbsp; &lt;font style=&quot;font-size: 30px&quot;&gt;+&amp;nbsp;&lt;/font&gt; Build Report through Report Builder" style="rounded=1;fillColor=#10739E;strokeColor=none;shadow=1;gradientColor=none;fontStyle=1;fontColor=#FFFFFF;fontSize=25;whiteSpace=wrap;html=1;" parent="c2JASZ9gz_57_YNBIvmX-1" vertex="1">
          <mxGeometry x="641" y="902.62" width="775" height="108" as="geometry" />
        </mxCell>
        <mxCell id="YFI8WPLBsElpcgAKOfzH-22" value="" style="edgeStyle=elbowEdgeStyle;strokeWidth=4;endArrow=block;endFill=1;fontStyle=1;strokeColor=#23445D;fontSize=25;fontColor=#330066;exitX=1;exitY=0.5;exitDx=0;exitDy=0;entryX=1;entryY=0.75;entryDx=0;entryDy=0;" parent="c2JASZ9gz_57_YNBIvmX-1" source="b5WC907d7xyRMW614ULj-0" target="YFI8WPLBsElpcgAKOfzH-17" edge="1">
          <mxGeometry x="677.5" y="-489.49999999999955" width="100" height="100" as="geometry">
            <mxPoint x="1547.5" y="260.5" as="sourcePoint" />
            <mxPoint x="1440" y="957" as="targetPoint" />
            <Array as="points">
              <mxPoint x="1950" y="957" />
              <mxPoint x="1950" y="810" />
            </Array>
          </mxGeometry>
        </mxCell>
        <mxCell id="YFI8WPLBsElpcgAKOfzH-23" value="" style="edgeStyle=orthogonalEdgeStyle;elbow=vertical;strokeWidth=4;endArrow=block;endFill=1;fontStyle=1;strokeColor=#23445D;fontSize=25;fontColor=#330066;exitX=1;exitY=0.5;exitDx=0;exitDy=0;" parent="c2JASZ9gz_57_YNBIvmX-1" target="YFI8WPLBsElpcgAKOfzH-12" edge="1">
          <mxGeometry x="679.5" y="-371.74999999999955" width="100" height="100" as="geometry">
            <mxPoint x="1417" y="374.5" as="sourcePoint" />
            <mxPoint x="1700" y="670" as="targetPoint" />
            <Array as="points">
              <mxPoint x="1710" y="375" />
              <mxPoint x="1710" y="670" />
            </Array>
          </mxGeometry>
        </mxCell>
        <mxCell id="YFI8WPLBsElpcgAKOfzH-24" value="" style="edgeStyle=orthogonalEdgeStyle;elbow=vertical;strokeWidth=4;endArrow=block;endFill=1;fontStyle=1;strokeColor=#23445D;fontSize=25;fontColor=#330066;exitX=1;exitY=0.5;exitDx=0;exitDy=0;" parent="c2JASZ9gz_57_YNBIvmX-1" edge="1">
          <mxGeometry x="679.5" y="-371.74999999999955" width="100" height="100" as="geometry">
            <mxPoint x="1417" y="374.5" as="sourcePoint" />
            <mxPoint x="1417" y="960" as="targetPoint" />
            <Array as="points">
              <mxPoint x="1800" y="374" />
              <mxPoint x="1800" y="960" />
              <mxPoint x="1440" y="960" />
            </Array>
          </mxGeometry>
        </mxCell>
      </root>
    </mxGraphModel>
  </diagram>
  <diagram id="lMAw3f6EoJafm3SUu05j" name="Page-5">
    <mxGraphModel dx="1622" dy="631" grid="1" gridSize="10" guides="1" tooltips="1" connect="1" arrows="1" fold="1" page="1" pageScale="1" pageWidth="40" pageHeight="30" math="0" shadow="0">
      <root>
        <mxCell id="jhGacCuhRrxPJ-FSA1BW-0" />
        <mxCell id="jhGacCuhRrxPJ-FSA1BW-1" parent="jhGacCuhRrxPJ-FSA1BW-0" />
        <mxCell id="jhGacCuhRrxPJ-FSA1BW-2" value="" style="rounded=0;whiteSpace=wrap;html=1;shadow=1;strokeColor=#666666;fillColor=#8c7aa9;fontSize=18;fontColor=#FCFCFC;rotation=90;" parent="jhGacCuhRrxPJ-FSA1BW-1" vertex="1">
          <mxGeometry x="-450" y="383" width="977" height="453" as="geometry" />
        </mxCell>
        <mxCell id="jhGacCuhRrxPJ-FSA1BW-3" value="Create new" style="rounded=1;fillColor=#10739E;strokeColor=none;shadow=1;gradientColor=none;fontStyle=1;fontColor=#FFFFFF;fontSize=35;" parent="jhGacCuhRrxPJ-FSA1BW-1" vertex="1">
          <mxGeometry x="-151.57" y="235.9999999999999" width="400" height="99" as="geometry" />
        </mxCell>
        <mxCell id="jhGacCuhRrxPJ-FSA1BW-4" value="&lt;font style=&quot;font-size: 30px&quot;&gt;&lt;span&gt;Reporting Module&lt;/span&gt;&lt;/font&gt;" style="text;html=1;strokeColor=none;fillColor=none;align=center;verticalAlign=middle;whiteSpace=wrap;rounded=0;shadow=1;fontSize=35;fontColor=#330066;fontStyle=1;labelBorderColor=none;" parent="jhGacCuhRrxPJ-FSA1BW-1" vertex="1">
          <mxGeometry x="340" y="260.5" width="250" height="70.5" as="geometry" />
        </mxCell>
        <mxCell id="jhGacCuhRrxPJ-FSA1BW-5" value="Design Page" style="rounded=1;fillColor=#10739E;strokeColor=none;shadow=1;gradientColor=none;fontStyle=1;fontColor=#FFFFFF;fontSize=25;whiteSpace=wrap;html=1;" parent="jhGacCuhRrxPJ-FSA1BW-1" vertex="1">
          <mxGeometry x="640" y="202.75" width="775" height="108" as="geometry" />
        </mxCell>
        <mxCell id="jhGacCuhRrxPJ-FSA1BW-6" value="Custom Reports: Some reports are custom build and can be made through Repots Builder" style="rounded=1;fillColor=#10739E;strokeColor=none;shadow=1;gradientColor=none;fontStyle=1;fontColor=#FFFFFF;fontSize=25;whiteSpace=wrap;html=1;" parent="jhGacCuhRrxPJ-FSA1BW-1" vertex="1">
          <mxGeometry x="640" y="318.75" width="775" height="108" as="geometry" />
        </mxCell>
        <mxCell id="jhGacCuhRrxPJ-FSA1BW-7" value="" style="endArrow=none;dashed=1;html=1;fontSize=25;fontColor=#330066;strokeWidth=4;" parent="jhGacCuhRrxPJ-FSA1BW-1" edge="1">
          <mxGeometry width="50" height="50" relative="1" as="geometry">
            <mxPoint x="2105" y="497" as="sourcePoint" />
            <mxPoint x="-192" y="496.5" as="targetPoint" />
          </mxGeometry>
        </mxCell>
        <mxCell id="jhGacCuhRrxPJ-FSA1BW-8" value="Modify" style="rounded=1;fillColor=#10739E;strokeColor=none;shadow=1;gradientColor=none;fontStyle=1;fontColor=#FFFFFF;fontSize=35;" parent="jhGacCuhRrxPJ-FSA1BW-1" vertex="1">
          <mxGeometry x="-156.07" y="588.2499999999999" width="400" height="99" as="geometry" />
        </mxCell>
        <mxCell id="jhGacCuhRrxPJ-FSA1BW-9" value="&lt;font style=&quot;font-size: 30px&quot;&gt;&lt;span&gt;Reporting Module&lt;/span&gt;&lt;/font&gt;" style="text;html=1;strokeColor=none;fillColor=none;align=center;verticalAlign=middle;whiteSpace=wrap;rounded=0;shadow=1;fontSize=35;fontColor=#330066;fontStyle=1;labelBorderColor=none;" parent="jhGacCuhRrxPJ-FSA1BW-1" vertex="1">
          <mxGeometry x="335.5" y="612.75" width="250" height="70.5" as="geometry" />
        </mxCell>
        <mxCell id="jhGacCuhRrxPJ-FSA1BW-10" value="View Page" style="rounded=1;fillColor=#10739E;strokeColor=none;shadow=1;gradientColor=none;fontStyle=1;fontColor=#FFFFFF;fontSize=25;align=center;verticalAlign=middle;html=1;" parent="jhGacCuhRrxPJ-FSA1BW-1" vertex="1">
          <mxGeometry x="642" y="602.75" width="775" height="108" as="geometry" />
        </mxCell>
        <mxCell id="jhGacCuhRrxPJ-FSA1BW-11" value="" style="endArrow=none;dashed=1;html=1;fontSize=25;fontColor=#330066;strokeWidth=4;" parent="jhGacCuhRrxPJ-FSA1BW-1" edge="1">
          <mxGeometry width="50" height="50" relative="1" as="geometry">
            <mxPoint x="2103.499999999999" y="797.25" as="sourcePoint" />
            <mxPoint x="-193.50000000000045" y="796.75" as="targetPoint" />
          </mxGeometry>
        </mxCell>
        <mxCell id="jhGacCuhRrxPJ-FSA1BW-12" value="User Layout Type 2" style="rounded=1;fillColor=#10739E;strokeColor=none;shadow=1;gradientColor=none;fontStyle=1;fontColor=#FFFFFF;fontSize=35;" parent="jhGacCuhRrxPJ-FSA1BW-1" vertex="1">
          <mxGeometry x="-149.57" y="929.2499999999999" width="400" height="99" as="geometry" />
        </mxCell>
        <mxCell id="jhGacCuhRrxPJ-FSA1BW-13" value="&lt;font style=&quot;font-size: 30px&quot;&gt;&lt;span&gt;Reporting Module&lt;/span&gt;&lt;/font&gt;" style="text;html=1;strokeColor=none;fillColor=none;align=center;verticalAlign=middle;whiteSpace=wrap;rounded=0;shadow=1;fontSize=35;fontColor=#330066;fontStyle=1;labelBorderColor=none;" parent="jhGacCuhRrxPJ-FSA1BW-1" vertex="1">
          <mxGeometry x="342" y="953.75" width="250" height="70.5" as="geometry" />
        </mxCell>
        <mxCell id="jhGacCuhRrxPJ-FSA1BW-14" value="Mapped With Custom Reports&amp;nbsp; &lt;font style=&quot;font-size: 30px&quot;&gt;+&amp;nbsp;&lt;/font&gt; Build Report through Report Builder" style="rounded=1;fillColor=#10739E;strokeColor=none;shadow=1;gradientColor=none;fontStyle=1;fontColor=#FFFFFF;fontSize=25;whiteSpace=wrap;html=1;" parent="jhGacCuhRrxPJ-FSA1BW-1" vertex="1">
          <mxGeometry x="641" y="902.62" width="775" height="108" as="geometry" />
        </mxCell>
        <mxCell id="jhGacCuhRrxPJ-FSA1BW-15" value="" style="edgeStyle=elbowEdgeStyle;strokeWidth=4;endArrow=block;endFill=1;fontStyle=1;strokeColor=#23445D;fontSize=25;fontColor=#330066;exitX=1;exitY=0.5;exitDx=0;exitDy=0;entryX=1;entryY=0.75;entryDx=0;entryDy=0;" parent="jhGacCuhRrxPJ-FSA1BW-1" source="jhGacCuhRrxPJ-FSA1BW-5" target="jhGacCuhRrxPJ-FSA1BW-14" edge="1">
          <mxGeometry x="677.5" y="-489.49999999999955" width="100" height="100" as="geometry">
            <mxPoint x="1547.5" y="260.5" as="sourcePoint" />
            <mxPoint x="1440" y="957" as="targetPoint" />
            <Array as="points">
              <mxPoint x="1950" y="957" />
              <mxPoint x="1950" y="810" />
            </Array>
          </mxGeometry>
        </mxCell>
        <mxCell id="jhGacCuhRrxPJ-FSA1BW-16" value="" style="edgeStyle=orthogonalEdgeStyle;elbow=vertical;strokeWidth=4;endArrow=block;endFill=1;fontStyle=1;strokeColor=#23445D;fontSize=25;fontColor=#330066;exitX=1;exitY=0.5;exitDx=0;exitDy=0;" parent="jhGacCuhRrxPJ-FSA1BW-1" target="jhGacCuhRrxPJ-FSA1BW-10" edge="1">
          <mxGeometry x="679.5" y="-371.74999999999955" width="100" height="100" as="geometry">
            <mxPoint x="1417" y="374.5" as="sourcePoint" />
            <mxPoint x="1700" y="670" as="targetPoint" />
            <Array as="points">
              <mxPoint x="1710" y="375" />
              <mxPoint x="1710" y="670" />
            </Array>
          </mxGeometry>
        </mxCell>
        <mxCell id="jhGacCuhRrxPJ-FSA1BW-17" value="" style="edgeStyle=orthogonalEdgeStyle;elbow=vertical;strokeWidth=4;endArrow=block;endFill=1;fontStyle=1;strokeColor=#23445D;fontSize=25;fontColor=#330066;exitX=1;exitY=0.5;exitDx=0;exitDy=0;" parent="jhGacCuhRrxPJ-FSA1BW-1" edge="1">
          <mxGeometry x="679.5" y="-371.74999999999955" width="100" height="100" as="geometry">
            <mxPoint x="1417" y="374.5" as="sourcePoint" />
            <mxPoint x="1417" y="960" as="targetPoint" />
            <Array as="points">
              <mxPoint x="1800" y="374" />
              <mxPoint x="1800" y="960" />
              <mxPoint x="1440" y="960" />
            </Array>
          </mxGeometry>
        </mxCell>
      </root>
    </mxGraphModel>
  </diagram>
  <diagram id="Q9o9-ZomSpo7NMZPiq-D" name="Dashboard">
    <mxGraphModel dx="2690" dy="1342" grid="1" gridSize="10" guides="1" tooltips="1" connect="1" arrows="1" fold="1" page="1" pageScale="1" pageWidth="40" pageHeight="30" math="0" shadow="0">
      <root>
        <mxCell id="FnQ43rn_pmtVP3oq0j7D-0" />
        <mxCell id="FnQ43rn_pmtVP3oq0j7D-1" parent="FnQ43rn_pmtVP3oq0j7D-0" />
        <mxCell id="FnQ43rn_pmtVP3oq0j7D-20" value="" style="rounded=0;whiteSpace=wrap;html=1;shadow=1;strokeColor=#666666;fillColor=#00487c;fontSize=18;fontColor=#FCFCFC;" vertex="1" parent="FnQ43rn_pmtVP3oq0j7D-1">
          <mxGeometry x="-320" y="-17" width="2270" height="113" as="geometry" />
        </mxCell>
        <mxCell id="FnQ43rn_pmtVP3oq0j7D-22" value="&lt;h1&gt;Creating a Dashboard&lt;/h1&gt;" style="text;align=center;verticalAlign=middle;resizable=0;points=[];autosize=1;fontSize=40;fontColor=#FFFFFF;fontStyle=1;horizontal=1;shadow=0;labelBorderColor=none;labelBackgroundColor=none;spacingTop=0;html=1;" vertex="1" parent="FnQ43rn_pmtVP3oq0j7D-1">
          <mxGeometry x="389.9999999999998" y="-41" width="850" height="160" as="geometry" />
        </mxCell>
        <mxCell id="FnQ43rn_pmtVP3oq0j7D-33" value="" style="edgeStyle=elbowEdgeStyle;elbow=vertical;strokeWidth=6;endArrow=block;endFill=1;fontStyle=1;strokeColor=#23445D;fontSize=34;" edge="1" parent="FnQ43rn_pmtVP3oq0j7D-1">
          <mxGeometry x="-50" y="49" width="100" height="100" as="geometry">
            <mxPoint x="700" y="258" as="sourcePoint" />
            <mxPoint x="90" y="539" as="targetPoint" />
            <Array as="points">
              <mxPoint x="400" y="379" />
            </Array>
          </mxGeometry>
        </mxCell>
        <mxCell id="FnQ43rn_pmtVP3oq0j7D-36" value="" style="edgeStyle=elbowEdgeStyle;elbow=vertical;strokeWidth=6;endArrow=block;endFill=1;fontStyle=1;strokeColor=#23445D;fontSize=34;exitX=0.5;exitY=1;exitDx=0;exitDy=0;entryX=0.943;entryY=0.157;entryDx=0;entryDy=0;entryPerimeter=0;" edge="1" parent="FnQ43rn_pmtVP3oq0j7D-1">
          <mxGeometry x="563" y="55" width="100" height="100" as="geometry">
            <mxPoint x="700" y="258" as="sourcePoint" />
            <mxPoint x="1278.1800000000003" y="534.5699999999997" as="targetPoint" />
            <Array as="points">
              <mxPoint x="1010" y="379" />
            </Array>
          </mxGeometry>
        </mxCell>
        <mxCell id="FnQ43rn_pmtVP3oq0j7D-43" value="" style="edgeStyle=elbowEdgeStyle;elbow=vertical;strokeWidth=4;endArrow=block;endFill=1;fontStyle=1;strokeColor=#23445D;fontSize=20;" edge="1" parent="FnQ43rn_pmtVP3oq0j7D-1">
          <mxGeometry x="-662" y="498" width="100" height="100" as="geometry">
            <mxPoint x="88" y="598" as="sourcePoint" />
            <mxPoint x="88" y="678" as="targetPoint" />
          </mxGeometry>
        </mxCell>
        <mxCell id="FnQ43rn_pmtVP3oq0j7D-45" value="" style="edgeStyle=segmentEdgeStyle;endArrow=classic;html=1;strokeColor=#4D4D4D;strokeWidth=4;fontSize=20;" edge="1" parent="FnQ43rn_pmtVP3oq0j7D-1">
          <mxGeometry width="50" height="50" relative="1" as="geometry">
            <mxPoint x="88" y="739" as="sourcePoint" />
            <mxPoint x="-189" y="833" as="targetPoint" />
            <Array as="points">
              <mxPoint x="88" y="773" />
              <mxPoint x="-189" y="773" />
            </Array>
          </mxGeometry>
        </mxCell>
        <mxCell id="FnQ43rn_pmtVP3oq0j7D-46" value="" style="edgeStyle=segmentEdgeStyle;endArrow=classic;html=1;strokeColor=#4D4D4D;strokeWidth=4;fontSize=20;" edge="1" parent="FnQ43rn_pmtVP3oq0j7D-1">
          <mxGeometry width="50" height="50" relative="1" as="geometry">
            <mxPoint x="88" y="739" as="sourcePoint" />
            <mxPoint x="360" y="833" as="targetPoint" />
            <Array as="points">
              <mxPoint x="88" y="773" />
              <mxPoint x="360" y="773" />
            </Array>
          </mxGeometry>
        </mxCell>
        <mxCell id="FnQ43rn_pmtVP3oq0j7D-53" value="" style="edgeStyle=segmentEdgeStyle;endArrow=classic;html=1;strokeColor=#4D4D4D;strokeWidth=4;fontSize=20;exitX=0.45;exitY=0.983;exitDx=0;exitDy=0;exitPerimeter=0;" edge="1" parent="FnQ43rn_pmtVP3oq0j7D-1">
          <mxGeometry width="50" height="50" relative="1" as="geometry">
            <mxPoint x="-189" y="893.98" as="sourcePoint" />
            <mxPoint x="88" y="1013" as="targetPoint" />
            <Array as="points">
              <mxPoint x="-189" y="954" />
              <mxPoint x="88" y="954" />
            </Array>
          </mxGeometry>
        </mxCell>
        <mxCell id="FnQ43rn_pmtVP3oq0j7D-62" value="" style="endArrow=none;html=1;strokeColor=#4D4D4D;strokeWidth=4;fontSize=20;exitX=0.45;exitY=0.983;exitDx=0;exitDy=0;exitPerimeter=0;endFill=0;startArrow=none;startFill=0;edgeStyle=orthogonalEdgeStyle;" edge="1" parent="FnQ43rn_pmtVP3oq0j7D-1">
          <mxGeometry width="50" height="50" relative="1" as="geometry">
            <mxPoint x="366" y="894.0000000000002" as="sourcePoint" />
            <mxPoint x="88" y="993" as="targetPoint" />
            <Array as="points">
              <mxPoint x="366" y="953" />
              <mxPoint x="88" y="953" />
              <mxPoint x="88" y="993" />
            </Array>
          </mxGeometry>
        </mxCell>
        <mxCell id="FnQ43rn_pmtVP3oq0j7D-75" value="" style="edgeStyle=elbowEdgeStyle;elbow=vertical;strokeWidth=4;endArrow=block;endFill=1;fontStyle=1;strokeColor=#23445D;fontSize=20;" edge="1" parent="FnQ43rn_pmtVP3oq0j7D-1">
          <mxGeometry x="527" y="495" width="100" height="100" as="geometry">
            <mxPoint x="1277" y="595" as="sourcePoint" />
            <mxPoint x="1277" y="675" as="targetPoint" />
          </mxGeometry>
        </mxCell>
        <mxCell id="FnQ43rn_pmtVP3oq0j7D-77" value="" style="edgeStyle=segmentEdgeStyle;endArrow=classic;html=1;strokeColor=#4D4D4D;strokeWidth=4;fontSize=20;" edge="1" parent="FnQ43rn_pmtVP3oq0j7D-1">
          <mxGeometry width="50" height="50" relative="1" as="geometry">
            <mxPoint x="1277" y="736" as="sourcePoint" />
            <mxPoint x="1000" y="830" as="targetPoint" />
            <Array as="points">
              <mxPoint x="1277" y="770" />
              <mxPoint x="1000" y="770" />
            </Array>
          </mxGeometry>
        </mxCell>
        <mxCell id="FnQ43rn_pmtVP3oq0j7D-78" value="" style="edgeStyle=segmentEdgeStyle;endArrow=classic;html=1;strokeColor=#4D4D4D;strokeWidth=4;fontSize=20;" edge="1" parent="FnQ43rn_pmtVP3oq0j7D-1">
          <mxGeometry width="50" height="50" relative="1" as="geometry">
            <mxPoint x="1277" y="736" as="sourcePoint" />
            <mxPoint x="1549" y="830" as="targetPoint" />
            <Array as="points">
              <mxPoint x="1277" y="770" />
              <mxPoint x="1549" y="770" />
            </Array>
          </mxGeometry>
        </mxCell>
        <mxCell id="FnQ43rn_pmtVP3oq0j7D-95" value="" style="edgeStyle=segmentEdgeStyle;endArrow=classic;html=1;strokeColor=#4D4D4D;strokeWidth=4;fontSize=20;" edge="1" parent="FnQ43rn_pmtVP3oq0j7D-1">
          <mxGeometry width="50" height="50" relative="1" as="geometry">
            <mxPoint x="1549.5" y="891" as="sourcePoint" />
            <mxPoint x="1272.5" y="985" as="targetPoint" />
            <Array as="points">
              <mxPoint x="1549.5" y="925" />
              <mxPoint x="1272.5" y="925" />
            </Array>
          </mxGeometry>
        </mxCell>
        <mxCell id="FnQ43rn_pmtVP3oq0j7D-96" value="" style="edgeStyle=segmentEdgeStyle;endArrow=classic;html=1;strokeColor=#4D4D4D;strokeWidth=4;fontSize=20;" edge="1" parent="FnQ43rn_pmtVP3oq0j7D-1">
          <mxGeometry width="50" height="50" relative="1" as="geometry">
            <mxPoint x="1549.5" y="891" as="sourcePoint" />
            <mxPoint x="1821.4999999999995" y="985" as="targetPoint" />
            <Array as="points">
              <mxPoint x="1549.5" y="925" />
              <mxPoint x="1821.5" y="925" />
            </Array>
          </mxGeometry>
        </mxCell>
        <mxCell id="FnQ43rn_pmtVP3oq0j7D-99" value="" style="edgeStyle=segmentEdgeStyle;endArrow=classic;html=1;strokeColor=#4D4D4D;strokeWidth=4;fontSize=20;exitX=0.45;exitY=0.983;exitDx=0;exitDy=0;exitPerimeter=0;" edge="1" parent="FnQ43rn_pmtVP3oq0j7D-1">
          <mxGeometry width="50" height="50" relative="1" as="geometry">
            <mxPoint x="1272.5" y="1045.98" as="sourcePoint" />
            <mxPoint x="1549.5" y="1165" as="targetPoint" />
            <Array as="points">
              <mxPoint x="1272.5" y="1106" />
              <mxPoint x="1549.5" y="1106" />
            </Array>
          </mxGeometry>
        </mxCell>
        <mxCell id="FnQ43rn_pmtVP3oq0j7D-100" value="" style="endArrow=none;html=1;strokeColor=#4D4D4D;strokeWidth=4;fontSize=20;exitX=0.45;exitY=0.983;exitDx=0;exitDy=0;exitPerimeter=0;endFill=0;startArrow=none;startFill=0;edgeStyle=orthogonalEdgeStyle;" edge="1" parent="FnQ43rn_pmtVP3oq0j7D-1">
          <mxGeometry width="50" height="50" relative="1" as="geometry">
            <mxPoint x="1827.5000000000005" y="1046" as="sourcePoint" />
            <mxPoint x="1549.5" y="1145" as="targetPoint" />
            <Array as="points">
              <mxPoint x="1827.5" y="1105" />
              <mxPoint x="1549.5" y="1105" />
              <mxPoint x="1549.5" y="1145" />
            </Array>
          </mxGeometry>
        </mxCell>
        <mxCell id="FnQ43rn_pmtVP3oq0j7D-106" value="" style="edgeStyle=elbowEdgeStyle;rounded=0;jumpStyle=none;jumpSize=6;orthogonalLoop=1;jettySize=auto;html=1;startArrow=none;startFill=0;startSize=6;endArrow=classic;endFill=1;strokeColor=#4D4D4D;strokeWidth=4;fontSize=20;" edge="1" parent="FnQ43rn_pmtVP3oq0j7D-1" target="FnQ43rn_pmtVP3oq0j7D-108">
          <mxGeometry relative="1" as="geometry">
            <mxPoint x="1000.666666666667" y="892" as="sourcePoint" />
          </mxGeometry>
        </mxCell>
        <mxCell id="FnQ43rn_pmtVP3oq0j7D-29" value="Dashboard" style="rounded=1;fillColor=#59c3c3;strokeColor=none;shadow=1;gradientColor=none;fontStyle=1;fontColor=#333333;fontSize=34;" vertex="1" parent="FnQ43rn_pmtVP3oq0j7D-1">
          <mxGeometry x="495.7500000000007" y="178" width="400" height="80" as="geometry" />
        </mxCell>
        <mxCell id="FnQ43rn_pmtVP3oq0j7D-41" value="Create Dashboard" style="rounded=1;fillColor=#59C3C3;strokeColor=none;shadow=1;gradientColor=none;fontStyle=1;fontColor=#333333;fontSize=22;" vertex="1" parent="FnQ43rn_pmtVP3oq0j7D-1">
          <mxGeometry x="-22.249999999999318" y="538" width="220" height="60" as="geometry" />
        </mxCell>
        <mxCell id="FnQ43rn_pmtVP3oq0j7D-44" value="Widget Section" style="rounded=1;fillColor=#59C3C3;strokeColor=none;shadow=1;gradientColor=none;fontStyle=1;fontColor=#333333;fontSize=22;" vertex="1" parent="FnQ43rn_pmtVP3oq0j7D-1">
          <mxGeometry x="-22.249999999999318" y="679" width="220" height="60" as="geometry" />
        </mxCell>
        <mxCell id="FnQ43rn_pmtVP3oq0j7D-51" value="Create &amp; Add new Report" style="rounded=1;fillColor=#59C3C3;strokeColor=none;shadow=1;gradientColor=none;fontStyle=1;fontColor=#333333;fontSize=22;whiteSpace=wrap;" vertex="1" parent="FnQ43rn_pmtVP3oq0j7D-1">
          <mxGeometry x="-300.2499999999993" y="834" width="220" height="60" as="geometry" />
        </mxCell>
        <mxCell id="FnQ43rn_pmtVP3oq0j7D-52" value="Add Previously Created Report " style="rounded=1;fillColor=#59C3C3;strokeColor=none;shadow=1;gradientColor=none;fontStyle=1;fontColor=#333333;fontSize=22;whiteSpace=wrap;" vertex="1" parent="FnQ43rn_pmtVP3oq0j7D-1">
          <mxGeometry x="248.75000000000068" y="834" width="220" height="60" as="geometry" />
        </mxCell>
        <mxCell id="FnQ43rn_pmtVP3oq0j7D-63" value="Layout Section" style="rounded=1;fillColor=#59C3C3;strokeColor=none;shadow=1;gradientColor=none;fontStyle=1;fontColor=#333333;fontSize=22;" vertex="1" parent="FnQ43rn_pmtVP3oq0j7D-1">
          <mxGeometry x="-23.249999999999318" y="1013" width="220" height="60" as="geometry" />
        </mxCell>
        <mxCell id="FnQ43rn_pmtVP3oq0j7D-117" value="Modify Design, Theme &amp; Layout" style="rounded=1;fillColor=#59C3C3;strokeColor=none;shadow=1;gradientColor=none;fontStyle=1;fontColor=#333333;fontSize=22;whiteSpace=wrap;" vertex="1" parent="FnQ43rn_pmtVP3oq0j7D-1">
          <mxGeometry x="-23.249999999999318" y="1153" width="220" height="60" as="geometry" />
        </mxCell>
        <mxCell id="FnQ43rn_pmtVP3oq0j7D-119" value="Publish" style="rounded=1;fillColor=#59C3C3;strokeColor=none;shadow=1;gradientColor=none;fontStyle=1;fontColor=#333333;fontSize=22;" vertex="1" parent="FnQ43rn_pmtVP3oq0j7D-1">
          <mxGeometry x="-23.249999999999318" y="1293" width="220" height="60" as="geometry" />
        </mxCell>
        <mxCell id="FnQ43rn_pmtVP3oq0j7D-121" value="Map with User Role" style="rounded=1;fillColor=#59C3C3;strokeColor=none;shadow=1;gradientColor=none;fontStyle=1;fontColor=#333333;fontSize=22;" vertex="1" parent="FnQ43rn_pmtVP3oq0j7D-1">
          <mxGeometry x="-23.249999999999318" y="1433" width="220" height="60" as="geometry" />
        </mxCell>
        <mxCell id="FnQ43rn_pmtVP3oq0j7D-74" value="Modify Dashboard" style="rounded=1;fillColor=#59C3C3;strokeColor=none;shadow=1;gradientColor=none;fontStyle=1;fontColor=#333333;fontSize=22;" vertex="1" parent="FnQ43rn_pmtVP3oq0j7D-1">
          <mxGeometry x="1166.7500000000007" y="535" width="220" height="60" as="geometry" />
        </mxCell>
        <mxCell id="FnQ43rn_pmtVP3oq0j7D-76" value="Layout Section" style="rounded=1;fillColor=#59C3C3;strokeColor=none;shadow=1;gradientColor=none;fontStyle=1;fontColor=#333333;fontSize=22;" vertex="1" parent="FnQ43rn_pmtVP3oq0j7D-1">
          <mxGeometry x="1166.7500000000007" y="676" width="220" height="60" as="geometry" />
        </mxCell>
        <mxCell id="FnQ43rn_pmtVP3oq0j7D-79" value="Modify Design, Theme &amp; Layout" style="rounded=1;fillColor=#59C3C3;strokeColor=none;shadow=1;gradientColor=none;fontStyle=1;fontColor=#333333;fontSize=22;whiteSpace=wrap;" vertex="1" parent="FnQ43rn_pmtVP3oq0j7D-1">
          <mxGeometry x="888.7500000000007" y="831" width="220" height="60" as="geometry" />
        </mxCell>
        <mxCell id="FnQ43rn_pmtVP3oq0j7D-80" value="Go to widget Section" style="rounded=1;fillColor=#59C3C3;strokeColor=none;shadow=1;gradientColor=none;fontStyle=1;fontColor=#333333;fontSize=22;" vertex="1" parent="FnQ43rn_pmtVP3oq0j7D-1">
          <mxGeometry x="1437.7500000000007" y="831" width="220" height="60" as="geometry" />
        </mxCell>
        <mxCell id="FnQ43rn_pmtVP3oq0j7D-97" value="Create &amp; Add new Report" style="rounded=1;fillColor=#59C3C3;strokeColor=none;shadow=1;gradientColor=none;fontStyle=1;fontColor=#333333;fontSize=22;whiteSpace=wrap;" vertex="1" parent="FnQ43rn_pmtVP3oq0j7D-1">
          <mxGeometry x="1161.2500000000007" y="986" width="220" height="60" as="geometry" />
        </mxCell>
        <mxCell id="FnQ43rn_pmtVP3oq0j7D-98" value="Add Previously Created Report " style="rounded=1;fillColor=#59C3C3;strokeColor=none;shadow=1;gradientColor=none;fontStyle=1;fontColor=#333333;fontSize=22;whiteSpace=wrap;" vertex="1" parent="FnQ43rn_pmtVP3oq0j7D-1">
          <mxGeometry x="1710.2500000000007" y="986" width="220" height="60" as="geometry" />
        </mxCell>
        <mxCell id="FnQ43rn_pmtVP3oq0j7D-102" value="Layout Section" style="rounded=1;fillColor=#59C3C3;strokeColor=none;shadow=1;gradientColor=none;fontStyle=1;fontColor=#333333;fontSize=22;" vertex="1" parent="FnQ43rn_pmtVP3oq0j7D-1">
          <mxGeometry x="1438.2500000000007" y="1165" width="220" height="60" as="geometry" />
        </mxCell>
        <mxCell id="FnQ43rn_pmtVP3oq0j7D-104" value="Publish" style="rounded=1;fillColor=#59C3C3;strokeColor=none;shadow=1;gradientColor=none;fontStyle=1;fontColor=#333333;fontSize=22;" vertex="1" parent="FnQ43rn_pmtVP3oq0j7D-1">
          <mxGeometry x="1438.2500000000007" y="1305" width="220" height="60" as="geometry" />
        </mxCell>
        <mxCell id="FnQ43rn_pmtVP3oq0j7D-105" value="Map with User Role" style="rounded=1;fillColor=#59C3C3;strokeColor=none;shadow=1;gradientColor=none;fontStyle=1;fontColor=#333333;fontSize=22;" vertex="1" parent="FnQ43rn_pmtVP3oq0j7D-1">
          <mxGeometry x="1438.2500000000007" y="1445" width="220" height="60" as="geometry" />
        </mxCell>
        <mxCell id="FnQ43rn_pmtVP3oq0j7D-108" value="Publish" style="rounded=1;fillColor=#59C3C3;strokeColor=none;shadow=1;gradientColor=none;fontStyle=1;fontColor=#333333;fontSize=22;" vertex="1" parent="FnQ43rn_pmtVP3oq0j7D-1">
          <mxGeometry x="888.7500000000007" y="972" width="220" height="60" as="geometry" />
        </mxCell>
        <mxCell id="FnQ43rn_pmtVP3oq0j7D-109" value="Modify Mapping" style="rounded=1;fillColor=#59C3C3;strokeColor=none;shadow=1;gradientColor=none;fontStyle=1;fontColor=#333333;fontSize=22;" vertex="1" parent="FnQ43rn_pmtVP3oq0j7D-1">
          <mxGeometry x="888.7500000000007" y="1112" width="220" height="60" as="geometry" />
        </mxCell>
        <mxCell id="FnQ43rn_pmtVP3oq0j7D-118" value="" style="edgeStyle=elbowEdgeStyle;rounded=0;jumpStyle=none;jumpSize=6;orthogonalLoop=1;jettySize=auto;html=1;startArrow=none;startFill=0;startSize=6;endArrow=classic;endFill=1;strokeColor=#4D4D4D;strokeWidth=4;fontSize=20;" edge="1" parent="FnQ43rn_pmtVP3oq0j7D-1" source="FnQ43rn_pmtVP3oq0j7D-63" target="FnQ43rn_pmtVP3oq0j7D-117">
          <mxGeometry relative="1" as="geometry" />
        </mxCell>
        <mxCell id="FnQ43rn_pmtVP3oq0j7D-120" value="" style="edgeStyle=elbowEdgeStyle;rounded=0;jumpStyle=none;jumpSize=6;orthogonalLoop=1;jettySize=auto;html=1;startArrow=none;startFill=0;startSize=6;endArrow=classic;endFill=1;strokeColor=#4D4D4D;strokeWidth=4;fontSize=20;" edge="1" parent="FnQ43rn_pmtVP3oq0j7D-1" source="FnQ43rn_pmtVP3oq0j7D-117" target="FnQ43rn_pmtVP3oq0j7D-119">
          <mxGeometry relative="1" as="geometry" />
        </mxCell>
        <mxCell id="FnQ43rn_pmtVP3oq0j7D-122" value="" style="edgeStyle=elbowEdgeStyle;rounded=0;jumpStyle=none;jumpSize=6;orthogonalLoop=1;jettySize=auto;html=1;startArrow=none;startFill=0;startSize=6;endArrow=classic;endFill=1;strokeColor=#4D4D4D;strokeWidth=4;fontSize=20;" edge="1" parent="FnQ43rn_pmtVP3oq0j7D-1" source="FnQ43rn_pmtVP3oq0j7D-119" target="FnQ43rn_pmtVP3oq0j7D-121">
          <mxGeometry relative="1" as="geometry" />
        </mxCell>
        <mxCell id="FnQ43rn_pmtVP3oq0j7D-101" value="" style="edgeStyle=elbowEdgeStyle;rounded=0;jumpStyle=none;jumpSize=6;orthogonalLoop=1;jettySize=auto;html=1;startArrow=none;startFill=0;startSize=6;endArrow=classic;endFill=1;strokeColor=#4D4D4D;strokeWidth=4;fontSize=20;" edge="1" parent="FnQ43rn_pmtVP3oq0j7D-1" source="FnQ43rn_pmtVP3oq0j7D-102" target="FnQ43rn_pmtVP3oq0j7D-104">
          <mxGeometry relative="1" as="geometry" />
        </mxCell>
        <mxCell id="FnQ43rn_pmtVP3oq0j7D-103" value="" style="edgeStyle=elbowEdgeStyle;rounded=0;jumpStyle=none;jumpSize=6;orthogonalLoop=1;jettySize=auto;html=1;startArrow=none;startFill=0;startSize=6;endArrow=classic;endFill=1;strokeColor=#4D4D4D;strokeWidth=4;fontSize=20;" edge="1" parent="FnQ43rn_pmtVP3oq0j7D-1" source="FnQ43rn_pmtVP3oq0j7D-104" target="FnQ43rn_pmtVP3oq0j7D-105">
          <mxGeometry relative="1" as="geometry" />
        </mxCell>
        <mxCell id="FnQ43rn_pmtVP3oq0j7D-107" value="" style="edgeStyle=elbowEdgeStyle;rounded=0;jumpStyle=none;jumpSize=6;orthogonalLoop=1;jettySize=auto;html=1;startArrow=none;startFill=0;startSize=6;endArrow=classic;endFill=1;strokeColor=#4D4D4D;strokeWidth=4;fontSize=20;" edge="1" parent="FnQ43rn_pmtVP3oq0j7D-1" source="FnQ43rn_pmtVP3oq0j7D-108" target="FnQ43rn_pmtVP3oq0j7D-109">
          <mxGeometry relative="1" as="geometry" />
        </mxCell>
      </root>
    </mxGraphModel>
  </diagram>
</mxfile>
